<svg width="50" height="50" viewBox="0 0 50 50" fill="none" xmlns="http://www.w3.org/2000/svg">
<path d="M17.1875 42.1875C18.0504 42.1875 18.75 41.4879 18.75 40.625C18.75 39.7621 18.0504 39.0625 17.1875 39.0625C16.3246 39.0625 15.625 39.7621 15.625 40.625C15.625 41.4879 16.3246 42.1875 17.1875 42.1875Z" stroke="#9077D2" stroke-width="1.5" stroke-linecap="round" stroke-linejoin="round"/>
<path d="M39.0625 42.1875C39.9254 42.1875 40.625 41.4879 40.625 40.625C40.625 39.7621 39.9254 39.0625 39.0625 39.0625C38.1996 39.0625 37.5 39.7621 37.5 40.625C37.5 41.4879 38.1996 42.1875 39.0625 42.1875Z" stroke="#9077D2" stroke-width="1.5" stroke-linecap="round" stroke-linejoin="round"/>
<path d="M4.6875 7.8125H10.9375L15.625 34.375H40.625" stroke="#9077D2" stroke-width="1.5" stroke-linecap="round" stroke-linejoin="round"/>
<path d="M15.625 26.0417H39.9844C40.1651 26.0418 40.3402 25.9793 40.48 25.8648C40.6197 25.7503 40.7155 25.5909 40.751 25.4138L43.5635 11.3513C43.5862 11.2379 43.5834 11.1208 43.5554 11.0086C43.5274 10.8965 43.4748 10.7919 43.4015 10.7025C43.3281 10.6131 43.2358 10.541 43.1313 10.4916C43.0267 10.4422 42.9125 10.4166 42.7969 10.4167H12.5" stroke="#9077D2" stroke-width="1.5" stroke-linecap="round" stroke-linejoin="round"/>
</svg>
