<svg width="1400" height="868" viewBox="0 0 1400 868" fill="none" xmlns="http://www.w3.org/2000/svg">
<g opacity="0.08">
<path d="M1174.4 421.07C1210.11 387.956 1231.99 361.505 1245.35 335.305C1294.35 234.116 1219.82 80.2056 1055.45 -56.7945C972.643 -124.788 879.559 -174.239 786.267 -199.797C704.54 -221.677 609.857 -227.999 488.292 -219.691C404.796 -213.577 320.259 -197.532 222.25 -169.194C123.197 -140.196 56.622 -108.166 6.39028 -65.34C4.13256 -63.3761 1.91354 -61.3849 -0.389465 -59.2488C-54.9434 -8.64888 -118.972 87.6414 -171.664 198.329C-225.22 310.829 -256.411 417.026 -255.099 482.407C-289.474 632.594 -205.042 670.033 -77.2444 726.711C-20.5538 751.85 43.695 780.349 111.535 823.87C160.483 855.286 203.636 883.853 241.713 909.06C424.556 1030.11 508.001 1085.36 670.391 1081.26C708.902 1079.55 743.205 1064.98 772.331 1037.96C795.289 1016.67 815.241 987.465 831.63 951.16C846.372 918.137 859.032 882.235 872.433 844.223C890.058 794.228 908.28 742.533 933.678 690.019C964.192 627.721 1010.2 568.52 1074.34 509.029C1083.86 500.198 1094.07 491.097 1104.68 481.978C1109.45 477.881 1114.19 473.825 1118.88 469.805C1138.6 452.938 1157.22 437.005 1174.4 421.07ZM-1.38342 -59.9525C0.930604 -62.0988 3.1603 -64.1035 5.4324 -66.0842C55.8527 -109.071 122.619 -141.2 221.92 -170.272C320.052 -198.645 404.705 -214.71 488.326 -220.838C610.08 -229.156 704.93 -222.819 786.83 -200.893C880.313 -175.282 973.557 -125.748 1056.49 -57.6453C1221.21 79.6467 1295.85 234.017 1246.64 335.634C1233.2 361.983 1211.23 388.548 1175.4 421.777C1158.2 437.733 1139.57 453.674 1119.84 470.552C1115.14 474.569 1110.4 478.622 1105.63 482.72C1095.04 491.829 1084.85 500.917 1075.34 509.736C1011.33 569.111 965.409 628.187 934.959 690.344C909.599 742.794 891.386 794.457 873.768 844.427C860.363 882.46 847.699 918.381 832.934 951.447C816.473 987.908 796.42 1017.25 773.329 1038.67C743.908 1065.96 709.246 1080.67 670.294 1082.41C591.331 1084.4 529.581 1072.82 463.809 1043.67C399.944 1015.37 333.177 971.165 240.767 909.987C202.694 884.784 159.544 856.214 110.597 824.807C42.8479 781.335 -21.3646 752.859 -78.0115 727.736C-143.972 698.482 -196.08 675.377 -228.799 640.099C-264.183 601.96 -272.718 553.336 -256.479 482.43C-257.813 417.028 -226.581 310.659 -172.96 198.015C-120.198 87.1945 -56.0567 -9.24186 -1.38342 -59.9525Z" fill="#EDE9F7"/>
<path d="M11.1261 -52.0259C9.80433 -50.8454 8.51083 -49.6629 7.18955 -48.437C-44.9441 -0.0668855 -106.355 92.9238 -157.063 200.309C-208.681 309.591 -238.834 413.057 -237.727 477.085C-270.834 623.223 -189.701 660.909 -66.8855 717.952C-13.7798 742.621 46.4127 770.582 109.911 812.298C156.309 842.607 197.318 870.243 233.501 894.624C409.02 1012.9 489.13 1066.88 645.971 1064.07C686.867 1063.03 723.517 1047.74 754.912 1018.61C775.966 999.08 794.771 973.194 810.801 941.678C832.154 903.93 850.525 861.697 869.971 816.985C888.243 774.972 907.142 731.524 930.358 687.359C979.16 596.13 1049.53 524.545 1098.21 478.637L1106.99 470.683C1117.66 461.026 1127.73 451.903 1137.62 442.73C1179.68 403.707 1211.24 370.102 1228.56 332.928C1273.85 234.352 1202.18 84.5794 1045.98 -48.6275C966.507 -117.209 877.241 -167.254 787.841 -193.353C708.315 -216.25 615.909 -223.426 497.035 -215.931C410.204 -210.618 323.224 -193.737 223.312 -162.798C126.357 -132.388 61.0829 -98.3799 11.6674 -52.5282L11.1261 -52.0259ZM6.1889 -49.1456C7.51569 -50.3766 8.81652 -51.566 10.141 -52.7385L10.669 -53.2352C60.2702 -99.2557 125.742 -133.377 222.953 -163.866C323.001 -194.846 410.11 -211.756 497.081 -217.078C616.146 -224.582 708.726 -217.392 788.431 -194.442C878.01 -168.292 967.435 -118.162 1047.04 -49.4704C1203.58 84.0227 1275.34 234.241 1229.86 333.232C1212.45 370.589 1180.8 404.307 1138.62 443.438C1128.73 452.619 1118.65 461.741 1107.98 471.404L1099.21 479.348C1050.61 525.181 980.341 596.657 931.626 687.714C908.436 731.84 889.545 775.266 871.276 817.263C851.821 862.002 833.44 904.261 812.071 942.034C795.982 973.665 777.083 999.673 755.908 1019.32C724.216 1048.72 687.187 1064.17 645.857 1065.21C488.527 1068.04 408.308 1013.98 232.546 895.545C196.365 871.166 155.363 843.534 108.967 813.224C45.5452 771.555 -14.607 743.617 -67.6706 718.969C-131.062 689.527 -181.13 666.271 -212.572 631.392C-246.563 593.687 -254.745 546.102 -239.112 477.113C-240.231 413.058 -210.035 309.415 -158.361 200.003C-107.585 92.4766 -46.0659 -0.663142 6.1889 -49.1456Z" fill="#EDE9F7"/>
<path d="M737.78 998.988C756.751 981.379 774.13 958.892 789.436 932.158C819.461 889.042 845.235 839.07 872.521 786.162C889.553 753.142 907.162 718.998 926.882 684.377C976.249 599.547 1038.02 530.77 1091.94 474.678L1095.24 471.499C1146.81 421.907 1191.35 379.075 1212.21 329.706C1253.95 233.621 1185.34 87.951 1037.42 -41.4161C960.274 -111.567 877.184 -160.792 790.442 -187.731C714.219 -211.273 621.423 -219.449 506.747 -212.74C417.773 -208.228 325.675 -189.89 225.185 -156.671C130.224 -124.884 64.5281 -87.7429 16.4339 -38.7065L15.2949 -37.6528C-34.4955 8.56178 -93.4145 98.3728 -142.311 202.579C-192.137 308.772 -221.403 409.626 -220.603 472.369C-252.661 614.623 -174.842 652.539 -57.0453 709.933C-7.54103 734.055 48.5661 761.397 107.697 801.239C151.456 830.384 190.247 857.031 224.474 880.539C392.64 996.042 469.389 1048.76 620.803 1047.08C664.353 1046.79 703.712 1030.61 737.78 998.988ZM26.8303 -50.4892C73.9392 -94.2148 136.845 -128.292 224.79 -157.73C325.437 -191 417.684 -209.367 506.803 -213.887C621.676 -220.61 714.656 -212.406 791.058 -188.813C877.979 -161.819 961.231 -112.504 1038.49 -42.2478C1111.46 21.5642 1166.45 90.2347 1197.54 156.333C1228.63 222.439 1234.15 282.485 1213.52 329.975C1192.57 379.574 1147.94 422.492 1096.26 472.189L1092.98 475.345C1039.14 531.358 977.426 600.062 928.129 684.771C908.433 719.36 890.823 753.498 873.799 786.511C846.492 839.452 820.7 889.462 790.658 932.594C775.313 959.402 757.854 981.989 738.778 999.695C704.392 1031.61 664.653 1047.94 620.661 1048.23C468.776 1049.91 391.917 997.12 223.518 881.452C189.29 857.947 150.502 831.301 106.744 802.163C47.6831 762.364 -8.38233 735.04 -57.854 710.944C-118.651 681.317 -166.667 657.921 -196.785 623.426C-229.355 586.134 -237.123 539.556 -221.986 472.396C-222.8 409.627 -193.495 308.604 -143.6 202.27C-94.6455 97.9245 -35.6146 7.96738 14.297 -38.3597L15.414 -39.393C19.0817 -43.1282 22.9311 -46.8699 26.8303 -50.4892Z" fill="#EDE9F7"/>
<path d="M721.933 978.174C738.497 962.795 754.025 943.898 768.076 922.017C809.267 872.913 844.348 813.477 881.492 750.549C894.807 727.987 908.577 704.657 923.005 681.162C976.49 596.141 1039.14 523.733 1084.88 470.86C1131.51 423.052 1175.52 377.926 1194.81 326.894C1213.56 280.863 1207.84 222.807 1178.27 158.985C1148.64 95.0361 1096.53 28.4895 1027.57 -33.4646C953.897 -104.201 874.577 -153.966 791.81 -181.371C717.877 -205.906 627.476 -214.94 515.443 -208.993C423.229 -205.292 328.675 -186.08 226.374 -150.256C146.247 -121.851 88.0908 -89.2694 43.3465 -47.7243C35.6757 -40.602 28.2829 -33.0904 21.3803 -25.3936C-25.9231 19.3299 -81.8418 105.805 -128.255 205.99C-176.368 309.846 -203.636 404.921 -203.061 466.842C-233.883 605.06 -159.41 643.259 -46.6824 701.08C-0.794761 724.616 51.2171 751.294 105.971 789.225C147.015 817.142 183.534 842.755 215.759 865.351C376.615 978.154 450.03 1029.64 595.923 1029.21C642.413 1029.82 684.807 1012.65 721.933 978.174ZM42.3471 -48.4325C87.2565 -90.1309 145.597 -122.816 225.946 -151.308C328.422 -187.19 423.139 -206.433 515.522 -210.139C627.747 -216.096 718.337 -207.037 792.449 -182.443C875.399 -154.975 954.871 -105.124 1028.65 -34.2786C1097.7 27.7541 1149.9 94.4103 1179.58 158.477C1209.26 222.537 1214.98 280.855 1196.13 327.133C1176.77 378.385 1132.66 423.607 1085.96 471.485C1040.27 524.294 977.665 596.661 924.231 681.593C909.815 705.069 896.049 728.395 882.733 750.956C845.565 813.927 810.452 873.411 769.248 922.526C755.18 944.437 739.582 963.42 722.93 978.881C685.483 1013.65 642.695 1030.97 595.759 1030.36C449.407 1030.78 375.88 979.227 214.787 866.26C182.568 843.663 146.054 818.055 105.013 790.138C50.3142 752.251 -1.65565 725.595 -47.5098 702.073C-105.684 672.23 -151.643 648.661 -180.453 614.55C-211.603 577.671 -219 532.121 -204.442 466.873C-205.031 404.918 -177.725 309.677 -129.55 205.682C-83.078 105.376 -27.0408 18.7421 20.3321 -26.0494C27.2261 -33.7312 34.6433 -41.2795 42.3471 -48.4325Z" fill="#EDE9F7"/>
<path d="M708.324 958.001C722.142 945.166 735.359 930.031 747.621 912.999C803.357 856.997 850.175 785.546 899.729 709.911C906.458 699.639 913.244 689.279 920.132 678.841C962.841 615.76 1006.9 559.681 1045.77 510.205C1057.47 495.322 1068.51 481.262 1078.96 467.733C1125.49 416.57 1162.35 373.576 1178.64 324.623C1195.63 279.738 1189.69 223.325 1161.46 161.47C1133.17 99.465 1083.78 34.8394 1018.61 -25.4228C948.316 -96.8678 872.662 -147.237 793.728 -175.141C722.023 -200.712 633.904 -210.631 524.342 -205.457C430.092 -202.648 330.204 -181.986 227.426 -144.054C154.248 -116.722 100.42 -85.6508 58.0324 -46.2812C46.5674 -35.6325 35.7896 -24.1603 25.9831 -12.1919C-18.7932 31.5346 -71.5393 114.79 -115.157 210.577C-160.525 310.205 -186.35 401.748 -186 461.732C-215.587 596.112 -144.355 634.7 -36.5216 693.105C5.81792 716.035 53.8011 742.026 104.267 778.049C142.578 804.724 176.828 829.284 207.038 850.958C360.911 961.321 431.137 1011.69 571.751 1012.56C621.622 1014.22 667.562 995.861 708.324 958.001ZM57.0322 -46.9902C99.5791 -86.508 153.578 -117.677 226.978 -145.092C329.931 -183.095 430.014 -203.787 524.432 -206.604C634.191 -211.789 722.5 -201.845 794.396 -176.202C873.505 -148.234 949.316 -97.7753 1019.72 -26.2214C1084.96 34.1117 1134.43 98.8489 1162.77 160.965C1191.11 223.052 1197.05 279.716 1179.97 324.828C1163.62 373.979 1126.67 417.081 1080.08 468.311C1069.66 481.802 1058.62 495.864 1046.92 510.752C1008.06 560.209 964.018 616.27 921.337 679.307C914.459 689.735 907.669 700.096 900.942 710.363C851.348 786.059 804.497 857.562 748.728 913.584C736.494 930.6 723.206 945.812 709.322 958.708C668.23 996.875 621.884 1015.38 571.565 1013.71C430.498 1012.84 360.167 962.389 206.065 851.855C175.85 830.188 141.612 805.626 103.297 778.957C52.8792 742.974 4.93356 716.997 -37.3737 694.09C-93.0253 663.943 -136.98 640.132 -164.528 606.33C-194.311 569.785 -201.367 525.199 -187.383 461.758C-187.742 401.738 -161.887 310.047 -116.457 210.284C-72.7758 114.364 -19.9318 30.9649 24.905 -12.8178C34.6941 -24.7805 45.5214 -36.2988 57.0322 -46.9902Z" fill="#EDE9F7"/>
<path d="M743.415 887.319C804.818 830.264 857.82 757.754 915.818 675.764C939.995 642.506 963.429 611.302 986.093 581.128C1017.85 538.848 1047.84 498.908 1071.87 463.714C1112.26 415.772 1146.85 372.008 1161.48 321.382C1176.78 277.634 1170.72 222.891 1143.97 163.047C1117.15 103.04 1070.62 40.4124 1009.41 -18.0687C942.699 -90.1431 870.846 -141.017 795.833 -169.295C726.486 -195.824 640.736 -206.517 533.688 -201.984C436.181 -199.911 333.688 -178.239 229.029 -137.572C163.127 -111.663 111.926 -81.2605 72.509 -44.6343C57.3323 -30.5321 43.3814 -15.0103 31.041 1.50305C-54.5882 88.1085 -169.204 329.222 -169.165 457.222C-197.743 587.821 -129.858 626.759 -27.1025 685.705C11.612 707.905 55.4855 733.071 101.555 767.058C136.99 792.359 168.822 815.77 196.912 836.419C343.574 944.256 410.509 993.477 545.817 995.474C599.467 998.306 649.527 978.484 694.63 936.575C705.259 926.698 715.623 915.526 725.44 903.374C731.468 898.198 737.487 892.827 743.415 887.319ZM71.5102 -45.3425C111.076 -82.1069 162.447 -112.611 228.556 -138.6C333.405 -179.345 436.102 -201.056 533.792 -203.132C641.044 -207.676 726.99 -196.954 796.528 -170.349C871.725 -142.003 943.725 -91.0303 1010.53 -18.8499C1071.81 39.6961 1118.41 102.427 1145.29 162.547C1172.14 222.609 1178.2 277.595 1162.82 321.555C1148.14 372.371 1113.47 416.242 1073.02 464.243C1049.02 499.408 1019.02 539.357 987.258 581.651C964.594 611.825 941.167 643.022 917.001 676.263C858.96 758.307 805.911 830.877 744.41 888.024C738.469 893.544 732.435 898.929 726.48 904.027C716.717 916.139 706.301 927.359 695.624 937.28C650.177 979.51 599.707 999.477 545.605 996.625C480.068 995.656 428.75 983.527 374.04 956.063C321.677 929.782 268.926 891 195.919 837.317C167.835 816.666 136 793.26 100.571 767.955C54.5438 734.01 10.7019 708.86 -27.9838 686.668C-81.0132 656.245 -122.905 632.222 -149.103 598.743C-177.431 562.539 -184.043 518.905 -170.549 457.251C-170.571 399.186 -146.023 311.027 -103.189 215.472C-62.1668 123.938 -12.3962 43.7267 29.9369 0.906582C42.2663 -15.5966 56.2692 -31.1806 71.5102 -45.3425Z" fill="#EDE9F7"/>
<path d="M763.298 845.342C820.921 791.786 871.309 728.161 912.999 672.987C969.89 599.759 1028.56 523.02 1065.9 460.277C1106.36 407.968 1133.71 366.105 1145.2 318.892C1172.9 231.735 1117.42 105.709 1000.4 -10.0298C937.141 -82.8261 868.985 -134.278 797.798 -162.984C730.77 -190.565 647.355 -202.135 542.765 -198.373C443.402 -197.19 335.403 -174.012 230.427 -131.351C170.221 -106.609 122.983 -77.8779 86.0201 -43.5231C67.0596 -25.9007 50.7322 -6.87689 36.107 14.6318C-3.62506 56.4016 -50.0853 133.189 -88.2449 220.133C-128.242 311.259 -151.296 395.671 -151.499 451.723C-178.837 578.526 -114.21 617.958 -16.3841 677.653C18.7568 699.089 58.5813 723.386 100.33 755.3C132.853 779.187 162.26 801.402 188.197 821.008C323.754 923.403 391.794 974.803 521.915 978.114C579.085 982.333 635.439 960.248 684.917 914.262C691.781 907.883 698.585 900.982 705.147 893.735C724.56 879.445 744.086 863.198 763.298 845.342ZM85.023 -44.2303C122.13 -78.718 169.525 -107.547 229.924 -132.372C335.106 -175.115 443.327 -198.335 542.882 -199.52C647.676 -203.292 731.309 -191.683 798.518 -164.03C869.886 -135.247 938.191 -83.6959 1001.54 -10.7935C1118.78 105.172 1174.36 231.563 1146.55 319.032C1133.78 371.528 1100.3 417.827 1067.09 460.748C1029.76 523.491 971.065 600.265 914.153 673.524C872.434 728.736 822.002 792.415 764.295 846.05C745.047 863.94 725.468 880.228 706.119 894.451C699.642 901.629 692.814 908.561 685.916 914.971C636.086 961.284 579.294 983.515 521.677 979.262C391.124 975.936 322.972 924.454 187.2 821.889C161.258 802.291 131.853 780.08 99.3263 756.191C57.6269 724.308 17.8256 700.024 -17.2861 678.6C-67.7789 647.792 -107.659 623.461 -132.586 590.241C-159.535 554.325 -165.791 511.614 -152.881 451.744C-152.691 395.664 -129.603 311.102 -89.5507 219.85C-51.3366 132.789 -4.79001 55.8609 34.9764 14.0734C49.5896 -7.43478 65.9837 -26.5345 85.023 -44.2303Z" fill="#EDE9F7"/>
<path d="M788.594 802.679C827.334 766.664 867.006 723.285 909.869 670.064C981.611 583.44 1030.64 513.597 1059.78 456.532C1094.28 407.452 1119.21 364.81 1128.85 315.997C1152.93 231.383 1100.27 109.355 991.428 -2.50693C931.659 -76.0676 867.193 -128.103 799.789 -157.201C735.111 -185.816 653.989 -198.253 551.793 -195.224C422.126 -194.8 306.112 -157.059 231.621 -125.472C176.493 -101.846 132.862 -74.7148 98.2445 -42.5316C75.9174 -21.7749 57.1393 1.15079 40.8378 27.5561C-34.9105 110.626 -133.47 328.54 -134.445 446.28C-160.622 569.455 -99.2301 609.469 -6.30183 670.031C25.2584 690.6 61.0301 713.913 98.4474 743.673C127.964 766.04 154.859 786.971 178.585 805.44C307.576 905.848 372.325 956.247 497.404 960.85C559.52 966.743 621.664 942.587 677.161 890.993C679.57 888.754 681.996 886.431 684.377 884.091C719.791 861.586 753.842 834.986 788.594 802.679ZM97.247 -43.2392C132.003 -75.5502 175.784 -102.779 231.096 -126.482C305.739 -158.132 421.988 -195.944 551.922 -196.369C654.334 -199.409 735.664 -186.937 800.543 -158.229C868.12 -129.06 932.739 -76.9132 992.586 -3.25213C1101.63 108.819 1154.37 231.202 1130.22 316.098C1120.55 365.056 1095.55 407.817 1061.01 456.95C1031.88 514.021 982.794 583.939 911.002 670.625C868.099 723.892 828.384 767.322 789.591 803.386C754.768 835.761 720.645 862.414 685.274 884.874C683.016 887.118 680.578 889.451 678.159 891.7C622.305 943.626 559.709 967.935 497.146 961.992C371.636 957.377 306.78 906.895 177.569 806.318C153.845 787.854 126.962 766.922 97.44 744.546C60.0477 714.816 24.3015 691.518 -7.23939 670.963C-100.51 610.176 -162.126 570.011 -135.826 446.305C-134.863 328.45 -36.1311 110.154 39.6815 27.0244C55.9756 0.625988 74.8264 -22.3954 97.247 -43.2392Z" fill="#EDE9F7"/>
<path d="M814.94 761.804C845.318 733.554 874.974 702.45 905.592 666.73C976.86 585.831 1026.37 513.672 1052.76 452.247C1078.59 411.366 1103.57 366.205 1111.8 312.505C1132.37 230.403 1082.74 112.426 982.28 4.5703C925.379 -70.771 866.4 -121.864 801.928 -151.667C739.695 -181.273 660.935 -194.486 561.137 -192.079C456.78 -192.493 340.315 -166.636 233.176 -119.271C182.565 -96.6746 142.195 -71.0232 109.758 -40.8569C84.2689 -17.1525 63.34 9.61597 45.7707 40.9842C-24.9361 122.206 -116.032 326.986 -117.718 441.489C-142.923 561.157 -84.8419 601.795 3.08244 663.311C31.0085 682.85 62.6648 704.999 95.683 732.444C122.049 753.149 146.29 772.653 167.675 789.872C290.005 888.361 351.411 937.795 471.511 943.582C552.856 952.988 620.119 911.083 662.234 874.278L662.376 874.177C714.813 845.268 764.719 808.509 814.94 761.804ZM108.764 -41.5624C141.331 -71.8499 181.845 -97.5955 232.624 -120.274C339.992 -167.733 456.705 -193.645 561.276 -193.229C661.305 -195.644 740.28 -182.384 802.714 -152.687C867.354 -122.8 926.482 -71.5961 983.453 3.84589C1084.09 111.893 1133.81 230.202 1113.17 312.566C1104.93 366.412 1079.87 411.696 1054.03 452.602C1027.63 514.063 978.049 586.334 906.698 667.325C876.049 703.08 846.359 734.215 815.935 762.509C765.64 809.283 715.657 846.102 663.131 875.071C620.759 912.088 553.088 954.191 471.22 944.73C350.705 938.92 289.192 889.398 166.643 790.74C145.262 773.528 121.03 754.015 94.6524 733.315C61.6572 705.88 30.0249 683.75 2.10812 664.224C-86.1263 602.479 -144.423 561.694 -119.103 441.509C-117.417 326.898 -26.1598 121.756 44.591 40.4933C62.1518 9.11902 83.17 -17.7606 108.764 -41.5624Z" fill="#EDE9F7"/>
<path d="M841.534 726.107C862.285 706.805 882.956 685.858 902.986 663.844C974.956 586.827 1024.78 512.401 1047.09 448.607C1076.52 395.811 1091.08 354.306 1095.83 309.74C1104.17 270.571 1097.35 222.493 1076.12 170.656C1054.77 118.509 1019.29 63.72 973.524 12.2155C920.186 -63.9813 864.763 -115.659 804.04 -145.817C744.198 -176.491 667.721 -190.596 570.24 -188.939C462.624 -190.244 343.378 -163.455 234.436 -113.504C187.863 -91.9458 150.458 -67.7359 120.085 -39.4855C91.6885 -13.0724 68.9662 17.4189 50.6148 53.7365C-15.593 133.877 -98.2186 325.825 -100.368 435.773C-124.389 552.052 -69.4774 593.536 13.6458 656.328C37.9818 674.715 65.5712 695.553 94.2554 720.584C117.412 739.498 138.007 756.709 157.917 773.35C273.987 870.336 332.244 919.019 447.593 926.188C528.193 937.298 597.82 898.817 642.043 864.587L642.194 864.492C711.374 831.35 778.441 784.791 841.534 726.107ZM119.088 -40.1932C149.583 -68.5579 187.128 -92.8619 233.863 -114.494C343.037 -164.554 462.55 -191.399 570.391 -190.09C668.11 -191.75 744.814 -177.596 804.86 -146.819C865.752 -116.576 921.315 -64.7846 974.718 11.5131C1020.52 63.0566 1056.06 117.938 1077.44 170.184C1098.74 222.189 1105.58 270.456 1097.21 309.764C1092.45 354.428 1077.85 396.053 1048.38 448.899C1026.06 512.758 976.144 587.333 904.062 664.475C884.014 686.506 863.309 707.484 842.529 726.813C779.347 785.581 712.171 832.22 642.868 865.437C598.385 899.853 528.364 938.506 447.279 927.326C331.518 920.135 273.15 871.365 156.874 774.204C136.961 757.562 116.374 740.357 93.2069 721.433C64.5381 696.415 36.9659 675.59 12.637 657.213C-70.7757 594.2 -125.884 552.569 -101.753 435.795C-100.779 385.574 -81.8648 311.678 -49.8779 233.15C-19.8389 159.404 17.2807 92.1636 49.4177 53.2783C67.7534 16.9436 90.5702 -13.6674 119.088 -40.1932Z" fill="#EDE9F7"/>
<path d="M862.874 696.663C875.17 685.224 887.379 673.224 899.173 660.999C973.457 585.905 1022.27 511.207 1040.34 444.966C1064.24 395.38 1076.12 352.851 1078.9 306.977C1092.48 228.719 1049.58 121.461 964.144 20.0048C914.508 -57.0234 862.715 -109.235 805.763 -139.665C748.39 -171.373 674.249 -186.312 579.097 -185.341C468.272 -187.485 346.266 -159.692 235.525 -107.09C192.544 -86.4917 157.805 -63.5929 129.316 -37.0894C98.2008 -8.14344 73.9632 25.9729 55.215 67.2165C-5.06095 144.556 -80.8913 327.427 -83.565 430.782C-106.525 543.858 -54.81 586.331 23.477 650.602C44.174 667.599 67.6392 686.858 91.9203 709.26C111.719 726.173 129.553 741.724 146.797 756.764C253.121 849.46 311.687 900.523 422.41 909.038C502.171 921.796 574.188 886.716 620.567 855.039C707.321 818.836 788.795 765.578 862.874 696.663ZM128.317 -37.7985C156.922 -64.4096 191.798 -87.3975 234.933 -108.068C345.914 -160.788 468.194 -188.639 579.258 -186.491C674.66 -187.466 749.039 -172.47 806.614 -140.647C863.73 -110.135 915.66 -57.8021 965.358 19.3337C1050.93 120.946 1093.91 228.488 1080.29 306.958C1077.51 352.917 1065.59 395.566 1041.66 445.19C1023.58 511.526 974.655 586.412 900.223 661.653C888.413 673.898 876.18 685.92 863.871 697.37C789.654 766.414 708.022 819.773 621.23 855.977C574.745 887.741 502.309 923.014 422.064 910.177C310.936 901.631 252.258 850.474 145.735 757.604C128.489 742.566 110.658 727.019 90.8514 710.085C66.5817 687.698 43.1316 668.449 22.4376 651.463C-56.1155 586.964 -108.01 544.352 -84.9499 430.802C-83.6868 381.84 -66.6154 313.329 -36.8825 237.973C-9.55707 168.721 24.4179 104.729 53.9937 66.7952C72.7332 25.5244 97.0678 -8.72779 128.317 -37.7985Z" fill="#EDE9F7"/>
<path d="M880.214 672.269C885.479 667.371 890.744 662.341 895.865 657.323C972.718 583.797 1020.48 508.876 1033.99 440.659C1052.66 394.507 1061.66 351.001 1062.33 303.645C1072.29 227.931 1032.22 124.689 955.145 27.4198C908.63 -51.5241 861.862 -102.739 807.931 -133.802C753.092 -166.535 681.331 -182.304 588.536 -182.021C476.216 -184.978 348.254 -155.46 237.429 -101.041C197.684 -81.3605 165.361 -59.6919 138.612 -34.8042C104.511 -3.07561 79.7767 33.463 60.7668 80.19C6.09583 155.121 -62.445 325.559 -65.6672 425.018C-87.5723 535.103 -39.0136 578.767 34.4925 644.866C51.5048 660.168 70.7854 677.509 90.6182 696.986C106.907 711.655 121.822 725.301 136.238 738.501C236.566 830.336 291.824 880.926 398.096 890.854C476.913 905.245 551.293 873.595 599.821 844.514C702.084 807.378 798.999 747.834 880.214 672.269ZM137.614 -35.5128C164.477 -60.5064 196.925 -82.2602 236.817 -102.01C347.889 -156.553 476.153 -186.13 588.719 -183.167C681.765 -183.455 753.769 -167.623 808.818 -134.764C862.914 -103.608 909.807 -52.2744 956.374 26.7725C1033.57 124.179 1073.71 227.682 1063.72 303.586C1063.05 351.01 1054.03 394.632 1035.33 440.811C1021.81 509.164 973.923 584.306 896.885 658.008C891.761 663.03 886.484 668.066 881.208 672.974C799.834 748.688 702.737 808.341 600.407 845.483C551.771 874.653 476.981 906.464 397.718 891.991C291.05 882.023 235.677 831.339 135.157 739.323C120.742 726.126 105.835 712.477 89.5292 697.802C69.6942 678.323 50.42 660.987 33.4187 645.696C-4.57703 611.528 -34.5886 584.545 -53.1048 551.609C-73.0961 516.049 -77.4037 477.013 -67.0549 425.038C-65.5352 378.112 -49.84 313.141 -22.8543 242.165C1.74404 177.47 32.5378 116.779 59.5185 79.8126C78.528 33.0401 103.364 -3.64597 137.614 -35.5128Z" fill="#EDE9F7"/>
<path d="M899.552 648.751C975.208 578.353 1019.67 505.226 1028.13 437.27C1042.3 393.612 1047.86 351.651 1046.17 301.124C1052.48 227.809 1015.1 128.463 946.188 35.3111C903.405 -44.6125 860.082 -96.3896 809.821 -127.695C758.176 -161.044 686.714 -178.174 597.388 -178.625C481.832 -182.501 350.997 -152.037 238.408 -95.042C201.521 -76.2288 171.353 -55.6908 146.175 -32.2632C109.662 1.71156 83.971 41.5718 65.3359 93.1788C14.5611 168.272 -44.9165 323.717 -48.6177 419.535C-69.4584 527.104 -26.3051 569.961 45.1872 640.969C59.13 654.821 73.5441 669.137 88.9017 685.338C101.571 697.449 113.387 708.898 124.826 719.962C219.499 811.641 271.65 862.137 373.904 873.641C451.834 889.706 528.667 861.508 579.414 835.03C697.508 797.838 805.926 735.495 893.086 654.693C895.271 652.705 897.422 650.732 899.552 648.751ZM145.174 -32.9741C170.46 -56.5024 200.752 -77.1207 237.774 -96.0034C350.62 -153.128 481.763 -183.66 597.576 -179.774C687.165 -179.323 758.892 -162.119 810.744 -128.634C861.165 -97.2311 904.603 -45.3327 947.438 34.694C1016.44 127.961 1053.89 227.545 1047.56 301.02C1049.26 351.608 1043.68 393.674 1029.5 437.354C1021.03 505.477 976.431 578.854 900.551 649.46C898.418 651.445 896.263 653.421 894.074 655.406C806.746 736.367 698.111 798.831 579.918 836.041C529.06 862.594 451.838 890.921 373.502 874.77C270.845 863.224 218.59 812.62 123.718 720.767C112.289 709.695 100.471 698.254 87.7882 686.127C72.4235 669.915 58.0082 655.607 44.0762 641.763C8.35445 606.284 -19.8561 578.262 -37.1928 544.947C-55.8956 509.023 -59.8459 470.352 -50.0028 419.548C-48.2724 374.619 -33.9837 313.128 -9.77401 246.482C12.0781 186.322 39.6841 128.881 64.0704 92.8371C82.706 41.1732 108.5 1.15088 145.174 -32.9741Z" fill="#EDE9F7"/>
<path d="M907.079 636.229C978.626 569.647 1018.34 499.522 1021.92 433.437C1031.67 393.38 1034.1 351.665 1029.81 298.088C1032.55 227.038 997.994 131.584 937.365 42.693C897.937 -39.3548 859.307 -90.1394 812.058 -122.043C762.919 -156.436 693.816 -174.425 606.649 -175.527C487.85 -180.242 354.098 -148.714 239.666 -89.0194C205.327 -70.9842 177.078 -51.4577 153.305 -29.3342C114.451 6.82348 87.9685 49.9595 69.9583 106.413C25.1646 178.702 -27.649 322.917 -31.9115 414.492C-51.8952 520.205 -11.4163 565.09 55.6371 639.462C65.5153 650.427 75.7501 661.767 86.4994 674.101C95.3523 683.2 103.833 691.986 111.992 700.436C201.062 792.704 250.125 843.525 348.779 856.659C425.731 874.316 505.087 849.517 558.114 825.613C685.047 790.964 799.645 730.881 889.67 651.806C895.634 646.672 901.49 641.431 907.079 636.229ZM152.307 -30.0422C176.183 -52.2614 204.546 -71.8646 239.019 -89.9725C353.717 -149.801 487.781 -181.405 606.85 -176.677C694.288 -175.578 763.667 -157.502 813.016 -122.963C860.419 -90.9523 899.161 -40.0429 938.637 42.1083C999.333 131.095 1033.95 226.756 1031.2 297.939C1035.5 351.566 1033.06 393.375 1023.3 433.448C1019.71 499.731 979.865 570.126 908.074 636.936C902.47 642.151 896.602 647.404 890.623 652.552C800.431 731.779 685.592 791.986 558.545 826.651C505.4 850.625 425.67 875.526 348.337 857.782C249.281 844.603 200.117 793.672 110.863 701.216C102.701 692.764 94.225 683.981 85.3539 674.86C74.591 662.51 64.3686 651.174 54.4808 640.213C20.9241 602.987 -5.58521 573.595 -21.7597 539.621C-39.1751 503.022 -42.7376 464.437 -33.2952 414.507C-29.0324 322.85 23.8656 178.391 68.67 106.11C86.6849 49.5814 113.281 6.27609 152.307 -30.0422Z" fill="#EDE9F7"/>
<path d="M912.291 625.841C980.742 562.133 1016.43 494.235 1015.48 429.481C1022.32 386.695 1019.5 344.811 1013.16 295.06C1012.27 225.125 981.311 135.925 928.212 50.2793C904.349 -5.65808 869.832 -75.0554 813.989 -116.077C767.408 -151.503 700.71 -170.361 615.747 -172.128C495.583 -177.638 355.527 -144.272 241.081 -82.8692C209.063 -65.588 182.58 -47.0212 160.117 -26.1149C118.504 12.6155 92.2269 57.5397 74.9394 119.558C35.4497 190.218 -9.93748 323.33 -14.6283 409.036C-33.8286 513.777 4.27352 561.485 67.4003 640.531C72.9752 647.522 78.7463 654.743 84.6841 662.261C89.539 667.705 94.2842 673.05 98.933 678.266C179.758 769.152 228.548 824.006 324.12 838.995C399.984 858.22 481.812 836.88 537.113 815.595C670.708 784.177 794.649 724.869 886.221 648.571C895.32 641.122 904.091 633.473 912.291 625.841ZM159.12 -26.8228C181.682 -47.8213 208.272 -66.4661 240.411 -83.8147C294.075 -112.601 355.139 -136.053 417.027 -151.635C485.608 -168.904 552.533 -176.19 615.953 -173.279C701.22 -171.506 768.19 -152.56 814.985 -116.972C871.027 -75.8038 905.624 -6.25914 929.503 49.7294C982.654 135.451 1013.66 224.822 1014.55 294.864C1020.9 344.646 1023.72 386.606 1016.87 429.42C1017.82 494.401 982.004 562.594 913.288 626.549C905.066 634.202 896.269 641.871 887.15 649.339C841.492 687.385 788.404 721.061 729.363 749.426C669.543 778.172 604.98 800.791 537.467 816.665C482.051 838.005 399.853 859.428 323.647 840.111C227.668 825.065 178.774 770.092 97.7709 679.017C93.1353 673.791 88.3849 668.455 83.5101 662.99C77.5575 655.444 71.7845 648.225 66.2103 641.24C2.91755 561.989 -35.2872 514.151 -16.0156 409.051C-11.3148 323.261 34.1349 189.947 73.6294 119.296C90.9401 57.1863 117.318 12.0836 159.12 -26.8228Z" fill="#EDE9F7"/>
<path d="M916.246 616.613C982.328 555.101 1014.52 488.853 1009.34 425.038C1012.57 381.506 1004.93 337.813 996.848 291.556C992.251 223.44 964.048 138.118 919.463 57.4223C897.046 -2.73095 867.289 -69.674 816.387 -110.517C772.408 -146.967 708.134 -166.678 625.353 -169.096C502.099 -175.453 359.19 -141.033 243.051 -77.0252C213.146 -60.4487 188.271 -42.7697 167.003 -22.9724C123.242 17.7618 96.5459 65.6829 80.4502 132.403C46.554 201.066 8.38318 321.091 3.12501 403.278C-15.5553 508.804 20.8218 560.807 81.091 646.969L83.2745 650.095L85.2163 652.519C160.79 746.844 206.403 803.783 299.795 820.934C374.47 841.682 458.797 823.803 516.401 805.156C658.35 776.554 788.517 719.632 883.028 644.852C894.822 635.653 905.996 626.154 916.246 616.613ZM166.005 -23.6814C187.366 -43.5659 212.346 -61.3179 242.373 -77.9584C358.781 -142.119 502.036 -176.618 625.576 -170.248C708.675 -167.812 773.221 -148.01 817.421 -111.381C868.515 -70.3851 898.335 -3.30035 920.776 56.9151C965.392 137.66 993.632 223.12 998.235 291.319C1006.32 337.584 1013.97 381.329 1010.73 424.904C1015.94 488.982 983.611 555.542 917.242 617.321C906.961 626.89 895.752 636.418 883.924 645.642C789.219 720.582 658.791 777.617 516.68 806.245C458.954 824.939 374.281 842.883 299.284 822.047C205.479 804.82 159.763 747.757 84.0301 653.225L82.0699 650.776L79.8638 647.622C19.4558 561.265 -17.0005 509.145 1.73867 403.297C7.00712 321.03 45.2215 200.834 79.1272 132.186C95.2359 65.352 122.042 17.2407 166.005 -23.6814Z" fill="#EDE9F7"/>
<path d="M919.123 609.777C983.31 550.023 1012.33 485.046 1003.06 421.866C1002.55 386.312 994.213 350.076 985.396 311.714C983.711 304.388 982 296.932 980.299 289.321C971.75 222.174 946.235 140.708 910.287 65.7835C890.789 4.83234 864.623 -62.9255 818.2 -103.797C776.804 -141.293 714.928 -161.887 634.284 -164.999C507.908 -172.268 362.134 -136.868 244.339 -70.303C216.353 -54.4086 192.947 -37.5638 172.796 -18.8047C126.966 23.8603 100.009 74.7055 85.3965 146.049C57.4854 212.037 26.244 319.807 20.4861 398.3C3.38211 499.436 32.2002 556.605 81.6873 638.752C144.624 728.77 187.668 784.922 275.473 803.821C348.939 826.086 435.795 811.723 495.732 795.757C645.959 770.134 782.334 715.662 879.831 642.349C894.01 631.809 907.229 620.849 919.123 609.777ZM171.8 -19.5123C192.041 -38.355 215.537 -55.2707 243.638 -71.2319C361.723 -137.952 507.841 -173.432 634.517 -166.146C715.494 -163.021 777.66 -142.323 819.271 -104.629C865.871 -63.6013 892.099 4.30299 911.617 65.3166C947.58 140.27 973.126 221.833 981.679 289.037C983.369 296.601 985.083 304.056 986.767 311.379C995.597 349.792 1003.93 386.069 1004.45 421.662C1008.92 452.146 1004.37 483.511 990.887 514.826C976.699 547.79 952.889 579.975 920.117 610.483C908.183 621.593 894.921 632.586 880.699 643.161C783 716.631 646.358 771.214 495.943 796.867C435.876 812.87 348.691 827.276 274.928 804.924C186.71 785.94 143.553 729.648 80.4444 639.38C30.8237 557.03 1.94819 499.724 19.1012 398.31C24.8593 319.757 56.1372 211.847 84.0545 145.882C98.6889 74.391 125.759 23.3491 171.8 -19.5123Z" fill="#EDE9F7"/>
<path d="M920.898 602.571C983.641 544.152 1009.85 480.077 996.685 417.281C993.551 387.286 984.548 356.868 975.016 324.662C971.291 312.076 967.439 299.058 963.788 285.586C954.336 236.046 935.839 158.9 901.343 72.5156C884.049 7.5942 862.284 -58.0508 820.375 -98.7678C781.616 -137.318 722.122 -158.764 643.556 -162.509C513.999 -170.619 365.264 -134.113 245.68 -64.8436C219.78 -49.7783 197.067 -33.2217 178.181 -15.6371C130.27 28.9731 103.103 82.7434 90.0887 158.709C69.9643 216.629 44.0849 312.554 37.306 392.564C22.0393 487.4 40.2983 548.047 79.3411 626.804C131.914 717.148 172.799 766.594 250.326 786.09C322.519 809.785 411.987 798.898 474.337 785.589C632.859 762.894 775.569 710.731 876.245 638.692C892.611 627.077 907.632 614.923 920.898 602.571ZM177.185 -16.3447C196.155 -34.0079 218.962 -50.6338 244.967 -65.7592C300.442 -97.8923 364.949 -124.013 431.518 -141.302C503.877 -160.092 577.288 -167.82 643.799 -163.659C722.721 -159.896 782.507 -138.333 821.487 -99.5632C863.554 -58.6879 885.376 7.09584 902.687 72.096C937.194 158.498 955.705 235.705 965.158 285.251C968.799 298.68 972.651 311.691 976.371 324.275C985.916 356.517 994.931 386.974 998.069 417.007C1004.42 447.307 1001.51 478.362 989.405 509.262C976.654 541.808 953.942 573.439 921.895 603.278C908.579 615.676 893.503 627.87 877.087 639.525C776.194 711.72 633.216 763.988 474.482 786.713C411.987 800.05 322.209 810.969 249.742 787.176C211.276 777.513 180.136 759.686 151.791 731.095C123.322 702.37 99.5295 664.268 78.0572 627.369C38.9173 548.413 20.6207 487.625 35.9248 392.574C42.703 312.516 68.6065 216.487 88.7356 158.595C101.765 82.4497 129.053 28.4706 177.185 -16.3447Z" fill="#EDE9F7"/>
<path d="M922.547 596.855C984.025 539.606 1007.54 476.296 990.558 413.766C985.446 387.922 975.733 361.748 965.453 334.038C959.393 317.701 953.121 300.804 947.442 283.039C944.235 270.735 940.953 257.868 937.545 244.512C924.867 194.817 910.495 138.496 892.429 80.6005C876.155 4.54947 858.039 -53.9327 822.509 -92.2637C786.4 -131.849 729.323 -154.164 652.865 -158.578C522.201 -167.461 366.853 -129.015 247.434 -58.2498C223.127 -43.7878 201.698 -27.9829 183.753 -11.2722C133.197 35.8066 106.804 90.681 95.4951 172.211C88.228 199.651 63.8767 296.073 55.0754 387.411C42.2744 472.405 48.9476 538.404 78.1014 615.249C107.53 680.915 145.857 744.969 226.296 768.688C282.357 788.555 361.042 791.036 453.884 775.871C620.493 756.264 769.393 706.528 873.177 635.829C891.532 623.379 908.143 610.268 922.547 596.855ZM182.755 -11.9811C200.779 -28.7652 222.299 -44.6377 246.711 -59.1549C302.762 -92.3731 368.381 -119.355 436.483 -137.189C510.388 -156.545 585.3 -164.336 653.125 -159.725C729.953 -155.289 787.33 -132.845 823.651 -93.0212C859.332 -54.5347 877.493 4.07522 893.794 80.2387C911.856 138.116 926.229 194.451 938.91 244.157C942.317 257.51 945.602 270.375 948.798 282.653C954.467 300.375 960.732 317.261 966.789 333.589C977.081 361.338 986.805 387.545 991.927 413.428C1000.13 443.602 998.808 474.407 988.01 504.97C976.635 537.169 954.945 568.32 923.542 597.562C909.082 611.029 892.408 624.191 873.987 636.684C769.982 707.533 620.811 757.369 453.967 777.002C360.891 792.206 281.927 789.71 225.664 769.766C190.334 759.348 161.144 741.046 136.483 713.815C115.217 690.342 96.2433 659.176 76.778 615.728C47.5523 538.696 40.8642 472.562 53.6845 387.417C62.494 296.04 86.8667 199.548 94.1259 172.151C105.456 90.4039 131.966 35.3147 182.755 -11.9811Z" fill="#EDE9F7"/>
<path d="M923.767 591.547C983.385 536.021 1004.97 471.54 984.538 409.982C977.886 387.351 967.525 364.42 956.554 340.139C947.901 320.987 938.949 301.178 931.166 280.091C913.747 228.241 900.55 166.951 886.573 102.067L883.561 88.0879C873.025 22.9992 859.794 -44.082 824.634 -86.5233C791.173 -127.186 736.457 -150.384 662.008 -155.467C528.173 -165.251 369.777 -125.738 248.629 -52.3449C225.753 -38.4457 205.495 -23.3287 188.41 -7.41585C122.315 54.143 106.711 124.531 100.169 185.264C93.6083 222.717 81.2333 298.034 72.0445 382.023C62.5122 450.912 56.4007 525.432 76.0657 603.693C99.2064 682.799 139.096 729.743 201.601 751.414C257.364 772.667 335.205 777.665 432.982 766.278C607.78 749.78 763.005 702.421 870.074 632.929C890.313 619.805 908.376 605.882 923.767 591.547ZM187.414 -8.12366C204.574 -24.1065 224.922 -39.2894 247.888 -53.2481C369.331 -126.814 528.114 -166.423 662.281 -156.613C737.117 -151.506 792.142 -128.163 825.815 -87.2456C861.124 -44.6194 874.386 22.5952 884.942 87.7853L887.95 101.743C901.915 166.604 915.111 227.866 932.51 279.657C940.276 300.704 949.22 320.495 957.869 339.634C968.849 363.944 979.225 386.904 985.889 409.58C995.891 439.717 996.107 470.383 986.531 500.722C976.436 532.69 955.657 563.486 924.766 592.257C909.312 606.65 891.172 620.629 870.859 633.803C763.559 703.438 608.055 750.894 433.002 767.422C334.982 778.836 256.89 773.81 200.92 752.482C138.063 730.681 97.9478 683.519 74.7051 604.061C54.9961 525.634 61.1069 451.005 70.6575 382.035C79.853 298.032 92.2298 222.693 98.7843 185.263C105.342 124.354 121.009 53.7241 187.414 -8.12366Z" fill="#EDE9F7"/>
<path d="M924.528 586.663C983.302 531.913 1002.42 467.854 978.362 406.287C970.496 386.271 959.577 365.956 948.021 344.451C936.542 323.1 924.674 301.02 914.728 277.26C895.434 231.157 883.409 176.869 874.525 95.7371C866.936 26.9151 857.555 -38.3546 826.585 -80.5746C795.788 -122.307 743.445 -146.385 671.001 -152.144C534.02 -162.845 372.62 -122.281 249.781 -46.2854C228.241 -32.9322 209.072 -18.4726 192.796 -3.31077C124.216 60.5729 109.863 134.509 104.869 198.404C104.067 208.805 103.286 219.462 102.491 230.386C99.3029 273.922 95.6958 323.266 89.0842 376.655C87.517 389.299 85.7535 402.356 84.0469 414.986C76.0817 473.974 67.844 534.965 74.1044 592.104C81.5142 659.464 118.042 709.882 176.957 734.067C231.57 756.369 310.674 763.963 412.077 756.636C594.984 743.291 756.5 698.34 866.88 630.053C888.891 616.392 908.286 601.792 924.528 586.663ZM191.797 -4.02044C208.145 -19.2489 227.4 -33.7711 249.025 -47.1818C372.164 -123.358 533.963 -164.019 671.288 -153.29C744.14 -147.501 796.796 -123.263 827.796 -81.2512C858.9 -38.8456 868.31 26.5593 875.913 95.5058C884.791 176.548 896.792 230.76 916.054 276.776C925.982 300.497 937.838 322.556 949.305 343.89C960.878 365.419 971.807 385.755 979.692 405.827C991.471 435.972 993.18 466.548 984.772 496.718C975.903 528.506 955.974 559.007 925.524 587.371C909.21 602.569 889.73 617.23 867.635 630.948C812.671 664.95 744.804 693.282 665.909 715.161C587.647 736.864 502.237 751.2 412.042 757.783C310.394 765.126 231.055 757.498 176.227 735.113C116.929 710.77 80.1615 660.061 72.7139 592.331C66.4432 535.084 74.6866 474.028 82.6584 414.985C84.3675 402.36 86.1294 389.308 87.6893 376.67C94.3107 323.301 97.9155 273.973 101.1 230.443C101.894 219.527 102.678 208.861 103.476 198.46C108.485 134.347 122.898 60.1607 191.797 -4.02044Z" fill="#EDE9F7"/>
<path d="M913.188 576.751C971.704 522.224 991.381 459.75 968.589 400.836C960.53 379.964 949.258 359.151 937.323 337.12C926.701 317.508 915.715 297.228 906.182 275.384C901.756 265.13 897.57 254.092 893.739 242.575C881.035 204.386 871.915 160.394 864.162 99.9348C855.534 33.6548 845.236 -29.2166 814.37 -70.0498C783.752 -110.36 732.629 -133.697 662.423 -139.418C581.5 -146.055 493.898 -134.083 409.087 -104.803C354.517 -86.4104 301.332 -61.0934 255.26 -31.5882C234.858 -18.6871 216.575 -4.74923 200.926 9.8329C158.878 49.0151 133.041 94.6268 119.625 153.37C116.003 169.485 113.257 186.842 111.236 206.424C109.528 221.81 107.912 237.588 106.195 254.292C102.34 291.735 97.9846 334.167 91.8308 379.203C90.7958 386.564 89.7294 393.972 88.6551 401.423C81.36 452.095 73.8115 504.496 75.3847 554.779C75.752 566.722 76.623 578.267 77.9826 589.088C86.0056 654.199 122.073 703.177 179.531 727C233.193 749.182 310.158 757.08 408.275 750.486C474.134 746.476 540.834 736.189 606.524 719.913C652.363 708.773 696.982 694.767 739.134 678.284C781.436 661.705 818.466 643.225 855.674 620.116C877.55 606.516 896.904 591.925 913.188 576.751ZM199.932 9.12612C215.651 -5.52102 234.007 -19.5209 254.493 -32.4713C300.669 -62.0497 353.993 -87.4252 408.683 -105.859C493.717 -135.217 581.562 -147.22 662.713 -140.566C733.318 -134.815 784.748 -111.319 815.574 -70.7379C846.582 -29.7194 856.907 33.2792 865.549 99.687C873.296 160.088 882.404 204.027 895.085 242.157C898.91 253.648 903.085 264.661 907.499 274.89C917.019 296.698 927.994 316.959 938.607 336.552C950.558 358.613 961.841 379.448 969.922 400.377C992.868 459.694 973.074 522.585 914.185 577.459C897.827 592.702 878.395 607.351 856.434 621.006C819.133 644.17 782.008 662.7 739.61 679.316C697.384 695.828 652.694 709.856 606.776 721.015C540.99 737.313 474.184 747.618 408.224 751.637C309.866 758.247 232.673 750.308 178.795 728.042C120.964 704.059 84.6608 654.799 76.5915 589.332C75.2332 578.482 74.3575 566.91 73.9938 554.942C72.4126 504.575 79.9653 452.135 87.2698 401.416C88.3463 393.966 89.4144 386.556 90.4417 379.199C96.5952 334.181 100.768 293.584 104.808 254.322C106.52 237.618 108.136 221.841 109.846 206.452C111.873 186.83 114.624 169.44 118.259 153.288C131.726 94.3039 157.679 48.4982 199.932 9.12612Z" fill="#EDE9F7"/>
<path d="M902.268 566.424C960.422 512.216 980.611 451.411 959.115 395.21C950.862 373.439 939.221 352.15 926.896 329.609C917.147 311.777 907.064 293.341 898.015 273.467C893.615 263.601 889.401 252.945 885.486 241.788C872.499 204.786 862.863 162.374 854.247 104.274C844.609 40.6089 833.415 -19.7974 802.682 -59.2057C772.267 -98.0502 722.425 -120.622 654.525 -126.292C574.609 -133.155 489.624 -120.709 408.755 -90.3068C356.991 -71.7206 307.566 -46.9138 261.849 -16.5624C242.611 -4.14344 225.26 9.23763 210.275 23.206C169.156 61.5352 143.116 106.057 128.316 163.324C124.382 178.942 121.278 195.693 118.823 214.54C115.605 236.509 112.561 259.539 109.345 283.918C105.251 314.932 101.02 346.997 95.8051 381.675L95.2263 385.367C86.4982 440.608 77.4807 497.726 80.0385 552.529C80.5631 564.061 81.5828 575.255 83.0737 585.778C91.7027 648.572 127.256 696.058 183.195 719.486C235.854 741.523 310.587 749.72 405.314 743.86C469.097 740.739 533.043 730.328 600.819 712.041C644.831 700.575 687.348 686.42 730.803 668.779C770.177 652.724 804.293 635.081 844.866 609.786C866.613 596.248 885.924 581.66 902.268 566.424ZM209.278 22.4967C224.329 8.46679 241.752 -4.96805 261.059 -17.4374C306.884 -47.8538 356.433 -72.7233 408.318 -91.3476C489.411 -121.84 574.654 -134.325 654.822 -127.44C723.107 -121.735 773.257 -99.016 803.878 -59.9047C834.745 -20.3224 845.968 40.2159 855.629 104.008C864.237 162.049 873.86 204.41 886.828 241.355C890.734 252.489 894.942 263.122 899.33 272.964C908.363 292.803 918.435 311.225 928.177 329.039C940.518 351.604 952.174 372.925 960.448 394.754C971.018 422.389 971.561 451.301 962.06 480.689C952.346 510.737 932.563 539.821 903.264 567.132C886.848 582.434 867.452 597.083 845.619 610.678C804.957 636.027 770.768 653.711 731.297 669.799C687.771 687.471 645.184 701.649 601.104 713.136C533.213 731.456 469.145 741.882 405.251 745.008C310.286 750.886 235.323 742.652 182.46 720.528C126.15 696.944 90.36 649.181 81.6891 586.035C80.1911 575.481 79.1757 564.269 78.6478 552.701C76.0852 497.807 85.1136 440.636 93.8465 385.341L94.4227 381.663C99.6331 347 103.864 314.932 107.96 283.923C111.178 259.539 114.218 236.508 117.438 214.534C119.898 195.665 123.008 178.876 126.952 163.213C141.808 105.718 167.968 61.0038 209.278 22.4967Z" fill="#EDE9F7"/>
<path d="M891.475 555.976C948.489 502.809 969.76 442.04 949.837 389.247C941.378 366.466 929.326 344.674 916.568 321.601C907.688 305.543 898.509 288.946 890.012 271.043C885.636 261.537 881.389 251.243 877.393 240.449C864.118 204.584 853.975 163.691 844.506 107.856C833.877 46.7125 821.805 -11.3183 791.174 -49.3631C760.938 -86.7954 712.304 -108.617 646.633 -114.225C567.611 -121.3 485.115 -108.335 408.051 -76.7307C359.81 -58.2351 312.63 -33.1937 267.794 -2.30434C249.709 9.63718 233.285 22.4668 218.958 35.8274C178.679 73.3877 152.35 116.925 136.089 172.846C131.835 188.006 128.354 204.183 125.456 222.302C119.636 253.799 114.196 287.89 108.432 323.979C105.353 343.29 102.167 363.254 98.7241 384.075C89.1539 438.178 80.0944 495.586 83.5307 550.47C84.2058 561.65 85.3692 572.498 86.9896 582.726C96.1996 643.296 131.28 689.353 185.769 712.407C237.493 734.319 310.102 742.803 401.579 737.631C463.941 735.306 525.278 724.769 594.63 704.458C636.121 692.867 677.841 678.146 722.204 659.44C763.736 641.837 794.636 624.134 833.982 599.503C855.666 585.976 875.007 571.332 891.475 555.976ZM217.962 35.1194C232.35 21.7024 248.848 8.82218 266.996 -3.16463C311.923 -34.1168 359.224 -59.2193 407.57 -77.7606C484.872 -109.465 567.648 -122.473 646.936 -115.372C712.986 -109.732 761.918 -87.762 792.358 -50.0726C823.133 -11.8589 835.242 46.3003 845.888 107.565C855.348 163.349 865.477 204.192 878.728 239.997C882.719 250.773 886.957 261.042 891.318 270.526C899.807 288.395 908.975 304.985 917.845 321.023C930.625 344.13 942.692 365.954 951.174 388.794C971.247 441.983 949.852 503.178 892.472 556.685C875.933 572.108 856.507 586.813 834.739 600.395C795.325 625.068 764.356 642.807 722.721 660.457C678.288 679.188 636.497 693.938 594.949 705.539C525.465 725.892 463.994 736.452 401.5 738.78C309.794 743.972 236.958 735.445 185.026 713.446C130.177 690.233 94.8641 643.91 85.6033 582.996C83.981 572.749 82.8164 561.867 82.1389 550.661C78.6985 495.671 87.7637 438.198 97.345 384.042C100.785 363.231 103.973 343.265 107.055 323.958C112.813 287.861 118.257 253.766 124.081 222.272C126.982 204.119 130.473 187.904 134.734 172.707C151.056 116.567 177.502 72.8494 217.962 35.1194Z" fill="#EDE9F7"/>
<path d="M881.576 546.062C938.121 493.317 959.787 434.285 941.015 384.096C932.291 360.235 919.75 337.946 906.475 314.346C898.452 300.083 890.153 285.331 882.24 269.433C877.875 260.301 873.579 250.376 869.476 239.925C855.846 205.215 845.117 165.856 834.687 112.3C823.425 56.0455 809.877 -1.94376 779.281 -38.6099C749.15 -74.6467 701.699 -95.7707 638.248 -101.397C560.126 -108.782 480.15 -95.4105 406.968 -62.7298C362.375 -44.4725 317.491 -19.2811 273.536 12.1535C256.661 23.565 241.21 35.7812 227.605 48.4718C188.224 85.2064 161.661 127.727 144.01 182.282C139.463 196.953 135.648 212.539 132.337 229.938C121.782 277.129 112.272 330.102 102.203 386.188C92.6193 435.288 83.4305 492.905 87.9143 547.996C88.7604 558.804 90.0874 569.309 91.8607 579.234C101.761 637.553 136.45 682.197 189.54 704.937C240.359 726.782 310.851 735.641 399.054 731.274C460.359 729.795 519.11 719.228 589.568 697.013C628.878 685.315 668.614 670.516 714.615 650.448C756.749 631.943 785.386 613.963 821.653 591.198L823.978 589.735C845.604 576.237 864.979 561.543 881.576 546.062ZM226.608 47.7629C240.272 35.0175 255.782 22.7497 272.714 11.3062C316.755 -20.1909 361.755 -45.4446 406.443 -63.7404C479.872 -96.5383 560.143 -109.956 638.555 -102.542C702.376 -96.8857 750.122 -75.6209 780.455 -39.3379C811.192 -2.49926 824.78 55.6215 836.064 111.991C846.482 165.493 857.197 204.802 870.804 239.46C874.905 249.892 879.187 259.798 883.542 268.901C891.438 284.772 899.731 299.511 907.752 313.766C921.046 337.397 933.606 359.722 942.352 383.647C961.272 434.231 939.481 493.687 882.573 546.771C865.904 562.319 846.449 577.077 824.737 590.627L822.413 592.089C786.091 614.888 757.406 632.894 715.153 651.455C669.082 671.555 629.29 686.372 589.92 698.087C519.307 720.354 460.411 730.94 398.959 732.425C310.535 736.805 239.821 727.902 188.789 705.972C135.35 683.081 100.439 638.173 90.4761 579.523C88.7024 569.573 87.3757 559.029 86.5213 548.197C82.0268 492.996 91.2302 435.302 100.828 386.139C110.895 330.052 120.41 277.064 130.975 229.863C134.281 212.451 138.1 196.825 142.661 182.11C160.379 127.344 187.057 84.6567 226.608 47.7629Z" fill="#EDE9F7"/>
<path d="M870.617 535.768C926.677 483.452 948.79 426.187 931.289 378.65C922.351 353.657 909.344 330.92 895.571 306.848C888.445 294.397 881.077 281.526 873.876 267.663C869.474 258.777 865.279 249.493 861.04 239.277C847.147 205.77 835.927 167.971 824.665 116.729C812.487 62.9712 798.044 7.53195 767.567 -27.7379C737.651 -62.3133 691.474 -82.6621 630.323 -88.2088C553.194 -95.7906 475.798 -81.908 406.497 -48.0568C365.049 -29.8292 323.636 -5.1354 279.864 27.45C264.216 38.3056 249.776 49.8904 236.917 61.8907C198.371 97.8624 171.476 139.416 152.286 192.659C147.414 206.848 143.234 221.845 139.492 238.503C128.551 279.433 118.111 325.911 105.642 389.217C91.9239 452.541 87.5605 502.482 91.9186 546.387C92.9097 556.819 94.3805 566.976 96.2832 576.589C106.739 632.61 140.901 675.766 192.476 698.119C241.604 719.504 311.787 728.89 395.431 725.257C471.849 724.304 535.965 705.728 583.281 689.652C630.51 674.617 673.56 655.95 705.785 641.366C741.78 624.95 766.699 609.069 795.546 590.68C801.068 587.159 806.768 583.527 812.752 579.756C834.367 566.228 853.835 551.429 870.617 535.768ZM235.92 61.181C248.832 49.131 263.332 37.5011 279.019 26.616C322.875 -6.0271 364.392 -30.7795 405.923 -49.0484C475.484 -83.0257 553.198 -96.9688 630.631 -89.3574C692.145 -83.7725 738.616 -63.2877 768.731 -28.4743C799.351 6.96126 813.828 62.5242 826.037 116.394C837.29 167.588 848.491 205.337 862.363 238.793C866.593 248.99 870.78 258.257 875.172 267.117C882.36 280.953 889.721 293.82 896.84 306.26C910.637 330.37 923.669 353.139 932.629 378.207C950.274 426.132 928.036 483.821 871.613 536.476C854.759 552.205 835.211 567.067 813.511 580.643C807.53 584.414 801.834 588.046 796.315 591.56C767.412 609.984 742.452 625.896 706.346 642.36C674.071 656.966 630.964 675.662 583.665 690.72C536.24 706.83 471.963 725.451 395.321 726.411C311.46 730.056 241.054 720.629 191.725 699.152C139.805 676.658 105.418 633.236 94.9068 576.896C93.0038 567.259 91.5242 557.071 90.5263 546.61C86.1685 502.603 90.5254 452.572 104.273 389.149C116.739 325.825 127.18 279.336 138.129 238.4C141.869 221.725 146.063 206.69 150.948 192.461C170.214 139.017 197.212 97.3035 235.92 61.181Z" fill="#EDE9F7"/>
<path d="M860.102 525.051C914.715 474.065 937.715 417.215 921.639 372.973C912.457 346.775 898.896 323.621 884.542 299.107C878.306 288.46 871.861 277.449 865.415 265.625C861.04 257.129 856.808 248.21 852.467 238.349C838.452 206.474 826.331 169.14 814.325 120.856C801.162 69.596 785.755 16.7083 755.32 -17.1987C725.56 -50.3417 680.616 -69.9518 621.738 -75.4838C545.584 -83.3287 470.761 -69.0059 405.359 -34.0618C367.288 -16.0442 329.245 8.09893 285.599 41.9399C271.235 52.1807 257.859 63.0668 245.815 74.3103C208.109 109.512 180.897 150.119 160.159 202.101C154.982 215.799 150.443 230.199 146.305 246.125C132.931 288.909 120.717 336.374 108.953 391.249C95.1833 449.091 90.8253 500.394 96.0104 543.747C97.1625 553.795 98.7861 563.61 100.833 572.918C111.921 626.644 145.626 668.342 195.753 690.344C243.94 711.634 311.881 721.363 392.234 718.477C466.379 718.49 527.459 699.893 577.424 681.7C620.13 667.221 660.302 649.169 697.345 631.821C729.139 616.805 750.466 602.84 775.16 586.675C783.536 581.188 792.2 575.52 801.852 569.417C823.5 555.852 843.097 540.927 860.102 525.051ZM244.818 73.6004C256.913 62.3089 270.341 51.3814 284.735 41.1229C328.45 7.225 366.593 -16.9765 404.739 -35.0252C470.406 -70.1217 545.569 -84.5107 622.056 -76.631C681.281 -71.0664 726.503 -51.3245 756.471 -17.952C787.047 16.116 802.494 69.1254 815.69 120.499C827.685 168.734 839.79 206.023 853.784 237.849C858.114 247.693 862.34 256.596 866.7 265.064C873.133 276.866 879.576 287.87 885.808 298.511C900.188 323.064 913.768 346.257 922.978 372.535C931.278 395.371 929.71 420.796 918.321 448.096C907.489 474.068 887.699 500.924 861.097 525.759C844.02 541.702 824.344 556.691 802.615 570.304C792.966 576.403 784.312 582.069 775.943 587.549C751.197 603.75 729.826 617.744 697.926 632.807C660.829 650.18 620.611 668.251 577.841 682.755C527.748 700.992 466.49 719.64 392.108 719.625C311.55 722.522 243.381 712.752 194.997 691.375C144.534 669.228 110.607 627.274 99.4647 573.242C97.4117 563.909 95.7829 554.059 94.6265 543.987C89.4293 500.529 93.7896 449.104 107.581 391.168C119.354 336.263 131.577 288.773 144.948 245.983C149.094 230.048 153.646 215.606 158.84 201.868C179.648 149.694 206.961 108.942 244.818 73.6004Z" fill="#EDE9F7"/>
<path d="M849.441 514.475C903.382 464.094 926.687 409.14 911.787 367.472C902.369 340.001 888.879 317.565 873.26 291.583C867.925 282.709 862.404 273.532 856.802 263.72C852.436 255.582 848.173 247.022 843.753 237.544C829.449 206.853 816.789 171.108 803.904 125.055C789.79 76.2714 773.464 25.9168 743.062 -6.64464C713.455 -38.3645 669.741 -57.2329 613.126 -62.7202C537.918 -70.8029 465.63 -55.997 404.081 -19.9035C359.931 2.6679 320.502 32.8837 291.077 56.6858C278.046 66.2626 265.789 76.3906 254.62 86.8223C217.67 121.334 190.033 161.097 167.629 211.957C162.128 225.171 157.23 238.99 152.67 254.185C136.835 298.009 123.441 343.677 111.71 393.824C97.6431 447.621 93.4052 498.764 99.4477 541.745C100.757 551.422 102.533 560.892 104.714 569.903C116.391 621.345 149.635 661.602 198.32 683.249C258.028 710.024 334.643 713.823 388.391 712.307C460.747 713.209 518.928 694.552 571.024 674.262C611.211 659.736 647.975 642.317 688.438 622.702C717.244 608.613 735.95 595.925 757.613 581.232C767.72 574.376 778.177 567.285 790.578 559.419C812.331 545.762 832.135 530.639 849.441 514.475ZM253.63 86.1169C264.842 75.644 277.141 65.4734 290.189 55.8844C319.648 32.0547 359.165 1.77455 403.414 -20.847C465.239 -57.1 537.885 -71.9862 613.45 -63.8666C670.401 -58.3462 714.394 -39.351 744.2 -7.41098C774.745 25.3033 791.119 75.7777 805.265 124.671C818.133 170.679 830.779 206.381 845.058 237.024C849.474 246.489 853.731 255.033 858.078 263.142C863.67 272.935 869.186 282.109 874.52 290.978C890.167 317.005 903.684 339.479 913.124 367.038C928.169 409.087 904.733 464.47 850.436 515.184C833.056 531.416 813.174 546.598 791.338 560.308C778.96 568.159 768.519 575.243 758.419 582.093C736.701 596.822 717.948 609.54 689.041 623.678C648.525 643.321 611.718 660.756 571.473 675.304C519.231 695.649 460.863 714.364 388.245 713.459C334.362 714.985 257.511 711.16 197.55 684.283C148.544 662.49 115.088 621.991 103.344 570.247C101.152 561.208 99.3792 551.703 98.0613 542.003C92.0037 498.905 96.2527 447.628 110.351 393.717C122.082 343.546 135.488 297.841 151.329 254C155.893 238.799 160.8 224.947 166.318 211.685C188.797 160.656 216.542 120.757 253.63 86.1169Z" fill="#EDE9F7"/>
<path d="M840.249 503.859C893.453 454.141 917.027 401.105 903.307 361.991C893.692 333.205 879.621 310.497 863.33 284.208C858.897 277.053 854.316 269.656 849.611 261.799C845.27 254.029 840.976 245.827 836.472 236.712C821.905 207.213 808.721 173.046 794.975 129.184C779.955 82.8655 762.745 35.0319 732.361 3.80179C702.919 -26.5005 660.417 -44.6171 606.051 -50.0426C531.769 -58.3295 461.982 -43.0006 404.226 -5.71211C368.06 14.3696 335.559 39.7039 297.877 71.5742C286.25 80.3989 275.194 89.6965 264.989 99.2322C228.7 133.144 200.505 172.188 176.256 222.099C170.407 234.852 165.141 248.097 160.163 262.574C141.956 306.521 127.347 350.425 115.486 396.829C100.864 447.756 96.819 497.349 103.788 540.268C105.247 549.58 107.161 558.708 109.483 567.415C121.713 616.608 154.469 655.425 201.731 676.715C260.279 703.355 333.955 707.686 385.456 706.628C452.46 708.254 505.938 692.04 565.628 667.2C603.502 652.604 638.446 635.055 675.442 616.475L680.63 613.868C707.225 600.397 723.932 588.586 743.278 574.906C754.419 567.03 765.934 558.885 780.49 549.618C802.44 535.799 822.544 520.405 840.249 503.859ZM263.997 98.5252C274.238 88.9552 285.331 79.6231 296.971 70.7896C334.691 38.8833 367.263 13.4968 403.494 -6.62059C461.544 -44.0958 531.715 -59.518 606.38 -51.1874C661.072 -45.7302 703.842 -27.4945 733.484 3.01337C764.014 34.3962 781.27 82.3466 796.326 128.772C810.058 172.591 823.228 206.718 837.771 236.173C842.266 245.275 846.556 253.46 850.88 261.203C855.573 269.042 860.153 276.441 864.585 283.589C880.907 309.931 895.004 332.678 904.652 361.56C918.506 401.054 894.802 454.519 841.244 504.568C823.469 521.179 803.285 536.634 781.254 550.507C766.737 559.748 755.237 567.879 744.113 575.746C724.713 589.463 707.953 601.312 681.255 614.837L676.055 617.445C639.021 636.046 604.039 653.613 566.115 668.224C506.235 693.15 452.56 709.421 385.293 707.783C333.67 708.845 259.748 704.49 200.957 677.746C153.392 656.312 120.419 617.26 108.12 567.778C105.792 559.048 103.867 549.886 102.409 540.547C95.4134 497.498 99.4687 447.757 114.125 396.7C125.996 350.264 140.623 306.312 158.836 262.346C163.82 247.866 169.1 234.59 174.961 221.791C199.297 171.721 227.581 132.556 263.997 98.5252Z" fill="#EDE9F7"/>
<path d="M830.312 492.585C882.512 443.781 906.162 392.835 893.562 356.305C883.752 326.255 869.063 303.418 852.058 276.973C848.517 271.465 844.849 265.76 841.069 259.761C836.745 252.358 832.414 244.523 827.824 235.79C812.982 207.531 799.239 174.977 784.58 133.336C768.614 89.5413 750.483 44.2761 720.079 14.3797C690.781 -14.4892 649.522 -31.8647 597.454 -37.2624C524.162 -45.809 456.96 -30.0415 403.1 8.33545C369.034 28.9469 339.152 54.6537 303.619 86.1167C293.54 94.0397 283.857 102.345 274.788 110.824C239.156 144.137 210.353 182.51 184.149 231.59C177.977 243.86 172.359 256.505 166.99 270.232C146.566 313.692 130.814 355.772 118.823 398.885C103.927 446.431 100.054 495.7 107.903 537.638C109.519 546.571 111.589 555.355 114.054 563.745C126.879 610.62 159.181 647.975 205.001 668.931C262.371 695.46 333.047 700.376 382.234 699.828C447.955 702.262 500.712 685.355 559.715 659.223C592.822 645.655 623.494 629.653 655.967 612.709C661.304 609.926 666.679 607.121 672.122 604.299C696.981 591.282 712.792 579.581 729.526 567.195C741.19 558.563 753.248 549.637 769.514 539.252C791.714 525.248 812.168 509.549 830.312 492.585ZM273.789 110.112C282.888 101.605 292.615 93.2773 302.692 85.3528C338.248 53.8642 368.184 28.111 402.314 7.46387C456.475 -31.1277 524.087 -47.0027 597.787 -38.4071C650.172 -32.9772 691.691 -15.4854 721.189 13.5777C751.735 43.6172 769.915 88.9891 785.921 132.894C800.564 174.494 814.29 207.015 829.111 235.232C833.696 243.949 838.019 251.775 842.332 259.152C846.096 265.134 849.766 270.834 853.307 276.342C870.347 302.839 885.06 325.723 894.91 355.878C907.636 392.788 883.859 444.16 831.306 493.294C813.092 510.323 792.558 526.086 770.28 540.14C754.067 550.493 742.027 559.401 730.387 568.014C713.599 580.441 697.737 592.178 672.762 605.254C667.317 608.081 661.944 610.881 656.609 613.666C624.098 630.628 593.388 646.654 560.237 660.239C501.029 686.461 448.059 703.429 382.055 700.977C332.749 701.53 261.834 696.595 204.224 669.958C158.105 648.865 125.597 611.282 112.696 564.132C110.219 555.719 108.146 546.902 106.531 537.936C98.6502 495.854 102.533 446.421 117.474 398.731C129.477 355.574 145.249 313.444 165.684 269.963C171.055 256.235 176.681 243.557 182.881 231.239C209.157 182.018 238.044 143.532 273.789 110.112Z" fill="#EDE9F7"/>
<path d="M820.347 481.336C872.185 432.842 895.244 385.255 883.605 350.777C873.661 319.524 859.101 297.795 840.665 270.283C837.98 266.281 835.218 262.153 832.367 257.854C828.047 250.798 823.686 243.322 819.025 234.994C803.935 207.988 789.656 177.033 774.092 137.566C757.975 98.0987 738.225 53.5838 707.774 25.0009C678.628 -2.43706 638.602 -19.0626 588.814 -24.416C516.5 -33.1892 451.847 -16.9364 401.826 22.5797C372.034 42.3498 345.208 67.3326 316.813 93.7852L309.111 100.955C300.759 107.783 292.631 114.885 284.919 122.1C249.774 154.976 220.129 192.923 191.631 241.525C185.114 253.323 179.134 265.386 173.378 278.371C150.415 321.651 133.966 360.772 121.604 401.524C106.171 446.659 102.534 494.294 111.351 535.668C113.118 544.23 115.326 552.671 117.943 560.758C131.33 605.333 163.15 641.232 207.546 661.848C263.744 688.261 331.442 693.722 378.337 693.647C450.108 697.198 504.086 674.902 553.223 651.766C582.489 639.001 609.681 624.187 638.465 608.51C646.557 604.099 654.753 599.635 663.123 595.145C686.636 582.421 701.048 571.205 716.31 559.332C728.175 550.098 740.448 540.551 758.136 529.219C780.398 515.141 801.91 498.583 820.347 481.336ZM283.925 121.391C291.661 114.155 299.813 107.027 308.16 100.21L315.821 93.0748C344.269 66.5789 371.136 41.552 400.987 21.7481C451.31 -18.0155 516.397 -34.3884 589.162 -25.5602C639.242 -20.1769 679.518 -3.44266 708.862 24.1814C739.455 52.8993 759.261 97.5206 775.42 137.094C790.973 176.525 805.233 207.445 820.304 234.408C824.953 242.73 829.309 250.194 833.616 257.223C836.453 261.509 839.218 265.635 841.901 269.636C860.374 297.208 874.97 318.987 884.951 350.355C896.717 385.219 873.535 433.218 821.341 482.045C802.834 499.357 781.24 515.978 758.901 530.107C741.28 541.393 729.036 550.92 717.193 560.134C701.881 572.05 687.416 583.301 663.782 596.092C655.408 600.586 647.218 605.045 639.133 609.452C610.31 625.153 583.085 639.983 553.786 652.76C504.462 675.984 450.259 698.37 378.136 694.803C331.125 694.876 263.195 689.392 206.761 662.868C162.082 642.123 130.06 606.002 116.587 561.166C113.972 553.052 111.745 544.582 109.981 535.993C101.125 494.457 104.775 446.638 120.255 401.348C132.642 360.545 149.111 321.36 172.09 278.051C177.855 265.07 183.841 252.982 190.387 241.135C218.96 192.407 248.676 154.366 283.925 121.391Z" fill="#EDE9F7"/>
<path d="M811.831 470.096C862.24 422.919 885.085 377.559 874.504 345.651C864.437 313.324 850.041 292.85 830.11 264.513C828.236 261.846 826.315 259.115 824.343 256.296C820.005 249.574 815.598 242.46 810.861 234.53C795.501 208.812 780.628 179.444 764.049 142.096C742.927 96.0998 723.215 60.419 695.695 35.847C666.617 9.80439 627.787 -6.11723 580.27 -11.4756C508.89 -20.5597 446.779 -3.90657 400.646 36.6836C388.835 45.3364 376.79 55.4884 362.691 68.6841C352.479 78.2414 342.456 88.1877 331.846 98.7222C326.264 104.258 320.602 109.875 314.801 115.548C308.488 120.922 302.27 126.472 296.291 132.069C261.003 165.095 231.158 201.789 199.514 251.055C192.744 262.229 186.25 274.018 180.212 286.087C155.084 328.322 137.554 365.67 125.03 403.655C109.119 446.525 105.803 492.513 115.678 533.174C117.613 541.389 119.997 549.488 122.757 557.241C136.769 599.522 168.188 633.996 211.229 654.333C266.344 680.708 331.095 686.788 375.705 687.246C446.352 691.695 497.514 669.464 548.004 644.284C574.063 632.223 598.326 618.402 624.022 603.767C634.132 598.011 644.592 592.051 655.33 586.114C677.747 573.6 690.959 562.759 704.941 551.285C716.775 541.575 729.003 531.538 747.883 519.424C770.645 505.003 792.754 487.95 811.831 470.096ZM361.696 67.9744C375.841 54.7359 387.93 44.5459 399.74 35.8981C446.191 -4.96952 508.753 -21.7676 580.618 -12.6183C628.418 -7.22761 667.498 8.79643 696.759 35.0097C724.413 59.7042 744.184 95.4719 765.361 141.587C781.925 178.905 796.781 208.243 812.122 233.923C816.853 241.843 821.254 248.952 825.577 255.65C827.537 258.448 829.46 261.186 831.335 263.851C851.312 292.257 865.744 312.783 875.852 345.239C886.558 377.527 863.587 423.299 812.826 470.806C793.68 488.725 771.488 505.841 748.649 520.309C729.854 532.372 717.659 542.378 705.862 552.057C691.821 563.579 678.559 574.463 656.007 587.05C645.275 592.989 634.822 598.942 624.718 604.696C598.99 619.351 574.692 633.19 548.592 645.268C497.908 670.549 446.509 692.877 375.485 688.404C330.765 687.938 265.784 681.833 210.439 655.352C167.131 634.887 135.508 600.201 121.411 557.672C118.643 549.895 116.253 541.767 114.313 533.519C104.392 492.68 107.725 446.489 123.702 403.449C136.244 365.404 153.801 327.984 178.954 285.713C184.982 273.656 191.492 261.842 198.288 250.622C230.006 201.248 259.92 164.471 295.298 131.361C301.296 125.747 307.529 120.183 313.823 114.826C319.581 109.193 325.246 103.577 330.82 98.0417C341.439 87.5019 351.467 77.5472 361.696 67.9744Z" fill="#EDE9F7"/>
<path d="M400.432 50.9207C395.08 55.2826 389.753 59.9596 384.095 65.2574C370.992 77.5274 358.389 91.027 345.043 105.317C337.414 113.485 329.528 121.936 321.262 130.449C317.558 133.755 313.885 137.113 310.298 140.472C274.929 173.591 243.319 210.811 207.811 261.141C200.661 271.883 193.781 283.071 187.372 294.394C159.588 336.069 141.421 370.631 128.461 406.504C111.933 447.275 108.791 491.625 119.602 531.407C121.668 539.254 124.187 547.003 127.076 554.443C141.776 594.962 171.846 627.085 214.056 647.339C267.966 673.571 329.693 680.132 371.985 681.022C441.534 686.21 489.99 663.981 541.694 636.617C565.078 625.089 586.893 612.028 609.984 598.21C621.732 591.179 633.877 583.913 646.559 576.658C668.111 564.225 680.295 553.634 693.191 542.428C704.833 532.307 716.872 521.843 736.804 509.002C760.261 494.085 783.17 476.363 803.048 457.75C851.883 412.022 874.472 368.973 865.031 339.636C855.038 306.465 840.993 287.445 819.733 258.656L816.265 253.958C811.922 247.561 807.496 240.814 802.722 233.313C787.019 208.643 772.108 181.709 754.366 145.977C732.313 103.01 711.964 69.5955 684.356 46.1958C655.46 21.6077 617.895 6.47514 572.705 1.21241C504.267 -7.77762 445.858 8.30348 403.766 47.7176C402.642 48.7696 401.524 49.8376 400.432 50.9207ZM383.1 64.5473C388.783 59.2254 394.138 54.5292 399.463 50.1898C400.521 49.1491 401.64 48.0695 402.773 47.0089C445.239 7.24419 504.121 -8.99013 573.061 0.0670022C618.517 5.36253 656.317 20.5898 685.404 45.3382C713.142 68.849 733.549 102.351 755.661 145.429C773.388 181.135 788.287 208.042 803.967 232.684C808.739 240.177 813.157 246.916 817.486 253.291L820.945 257.973C842.262 286.839 856.346 305.911 866.38 339.227C875.947 368.944 853.225 412.404 804.041 458.459C784.094 477.137 761.109 494.92 737.566 509.888C717.738 522.663 705.743 533.09 694.144 543.171C681.183 554.434 668.947 565.07 647.257 577.583C634.588 584.829 622.453 592.093 610.707 599.123C587.583 612.96 565.736 626.033 542.317 637.58C492.308 664.046 441.614 687.385 371.743 682.173C329.35 681.28 267.392 674.694 213.251 648.358C170.786 627.975 140.529 595.653 125.743 554.904C122.844 547.441 120.316 539.659 118.237 531.785C107.378 491.804 110.537 447.23 127.139 406.272C140.122 370.332 158.331 335.684 186.149 293.975C192.546 282.656 199.444 271.441 206.62 260.667C242.195 210.236 273.86 172.953 309.305 139.763C312.9 136.398 316.586 133.031 320.256 129.753C328.476 121.286 336.357 112.843 343.979 104.679C357.34 90.3667 369.964 76.8547 383.1 64.5473Z" fill="#EDE9F7"/>
<path d="M795.061 446.076C841.948 402.157 864.021 361.589 855.621 334.778C845.727 301 832.121 283.565 809.584 254.687L808.04 252.709C803.658 246.61 799.195 240.223 794.384 233.169C778.57 209.971 763.116 184.585 744.274 150.864C724.334 116.293 701.819 81.0482 672.353 57.4526C643.542 34.2789 607.191 19.8811 564.296 14.6484C500.733 5.95358 447.03 20.1938 408.98 55.8357C405.663 58.9427 402.422 62.25 399.355 65.6712C398.601 66.3631 397.909 67.0081 397.209 67.6632C382.794 81.1658 369.42 96.8382 355.267 113.43C346.319 123.918 337.07 134.761 326.963 145.762C281.312 188.63 245.028 233.379 215.542 271.495C208.003 281.801 200.753 292.387 194.021 302.95C173.797 330.145 148.434 366.801 131.562 409.521C114.736 447.729 111.784 491.565 123.446 529.81C125.671 537.29 128.34 544.693 131.384 551.813C146.622 589.972 176.266 620.683 217.103 640.649C269.919 666.819 328.68 673.941 368.673 675.306C437.143 681.305 484.876 658.196 535.822 629.688C556.898 618.649 576.587 606.265 597.432 593.156C610.438 584.976 623.886 576.521 638.182 568.084C658.999 555.696 670.255 545.305 682.173 534.303C693.488 523.857 705.195 513.047 726.036 499.58C750.062 484.266 774.573 465.266 795.061 446.076ZM407.986 55.1268C446.415 19.1306 500.595 4.74023 564.664 13.5085C607.803 18.7638 644.386 33.2547 673.381 56.5778C702.974 80.2815 725.552 115.615 745.547 150.273C764.375 183.978 779.819 209.341 795.616 232.516C800.419 239.56 804.877 245.941 809.247 252.017L810.778 253.978C833.385 282.949 847.032 300.435 856.969 334.377C865.49 361.565 843.288 402.541 796.054 446.785C775.499 466.039 750.907 485.103 726.804 500.465C706.083 513.85 694.428 524.612 683.157 535.018C671.179 546.079 659.865 556.521 638.895 569.002C624.618 577.425 611.183 585.872 598.189 594.048C577.315 607.173 557.602 619.572 536.484 630.636C485.307 659.273 437.321 682.495 368.41 676.464C328.311 675.095 269.331 667.941 216.299 641.656C175.216 621.576 145.394 590.674 130.056 552.301C127.011 545.157 124.325 537.72 122.097 530.204C110.36 491.754 113.336 447.669 130.254 409.26C147.165 366.432 172.587 329.687 192.835 302.464C199.553 291.921 206.815 281.314 214.387 270.97C243.912 232.795 280.245 187.993 325.928 145.092C335.98 134.147 345.223 123.315 354.161 112.838C369.028 95.4103 383.034 78.9981 398.325 64.9998C401.373 61.604 404.638 58.263 407.986 55.1268Z" fill="#EDE9F7"/>
<path d="M787.415 432.705C813.617 408.153 856.06 361.996 845.937 328.706C836.246 294.609 823.246 278.891 799.644 250.354C795.102 244.416 790.606 238.395 785.811 231.845C765.654 204.296 747.523 176.089 733.968 154.594C713.237 122.675 689.942 90.0341 660.184 67.5975C631.448 45.8392 596.317 32.1793 555.755 26.9971C496.622 18.5796 447.165 31.1911 412.721 63.4654C407.558 68.3026 402.662 73.6358 398.177 79.326C386.204 91.7922 375.221 106.104 363.592 121.258C353.977 133.791 344.031 146.746 332.578 159.969C295.659 196.682 262.154 234.786 223.195 280.715C215.229 290.607 207.62 300.587 200.596 310.36C177.482 338.262 151.604 372.053 134.595 411.369C117.207 447.691 114.521 489.831 127.207 526.995C129.581 534.107 132.399 541.166 135.594 547.975C151.352 583.731 180.544 613.026 220.031 632.704C271.744 658.828 327.508 666.494 365.187 668.325C432.721 675.108 477.807 652.174 529.73 621.492C548.809 610.865 566.64 599.063 585.523 586.564C599.484 577.32 613.922 567.764 629.559 558.243C645.352 548.562 654.947 540.254 662.253 533.408C665.328 530.526 668.174 527.729 671.192 524.76C674.173 521.825 677.265 518.779 680.565 515.688C687.755 508.95 698.171 499.817 715.019 488.903C740.216 472.799 765.927 452.839 787.415 432.705ZM411.725 62.7549C446.552 30.1229 496.482 17.3647 556.133 25.8584C596.352 30.9951 632.681 45.1192 661.184 66.6995C691.073 89.2358 714.428 121.959 735.215 153.963C748.761 175.452 766.88 203.635 787.025 231.163C791.811 237.707 796.303 243.725 800.765 249.558C824.507 278.261 837.552 294.035 847.292 328.31C857.573 362.119 814.813 408.673 788.408 433.414C766.852 453.612 741.062 473.632 715.787 489.788C699.046 500.629 688.702 509.699 681.556 516.395C678.267 519.477 675.192 522.51 672.209 525.446C669.323 528.285 666.337 531.225 663.248 534.119C655.883 541.019 646.216 549.385 630.295 559.147C614.682 568.649 600.254 578.2 586.302 587.438C567.404 599.951 549.544 611.775 530.426 622.416C478.248 653.256 432.908 676.304 364.9 669.48C327.121 667.645 271.137 659.94 219.211 633.712C179.498 613.921 150.126 584.452 134.282 548.487C131.074 541.659 128.247 534.569 125.864 527.424C113.096 490.025 115.804 447.617 133.308 411.078C150.361 371.632 176.312 337.754 199.447 309.822C206.46 300.056 214.09 290.066 222.076 280.141C261.072 234.168 294.603 196.039 331.513 159.327C342.907 146.177 352.837 133.237 362.443 120.72C374.097 105.535 385.101 91.1896 397.084 78.7213C401.571 73.0326 406.51 67.6419 411.725 62.7549Z" fill="#EDE9F7"/>
<path d="M780.898 419.658C823.469 379.756 843.32 345.544 836.796 323.323C827.398 289.171 814.687 274.708 791.618 248.457C786.982 242.774 782.447 237.11 777.737 231.125C758.432 206.61 740.561 181.911 724.125 158.87C703.679 130.985 678.68 99.5887 648.402 78.2028C620.105 58.1254 585.219 44.8394 547.508 39.7762C491.555 31.5003 447.112 42.375 415.402 72.0963C408.691 78.3873 402.545 85.5833 397.134 93.4853C387.906 104.575 379.444 117.062 370.485 130.284C360.741 144.663 350.663 159.531 338.248 174.768C317.248 197.059 296.757 219.275 275.063 242.799C260.693 258.387 245.83 274.5 230.782 290.667C222.315 300.194 214.336 309.572 207.064 318.536C181.051 346.787 154.641 377.886 137.455 414.086C119.468 448.635 117.037 489.119 130.767 525.163C133.289 531.926 136.259 538.642 139.604 545.132C155.851 578.502 184.629 606.412 222.823 625.837C273.518 651.946 326.325 660.156 361.705 662.442C428.415 669.999 470.974 647.26 523.816 614.319C541.151 604.063 557.368 592.744 574.531 580.763C589.23 570.505 604.43 559.895 621.231 549.348C631.596 542.802 640.141 536.264 648.117 528.789C652.713 524.481 656.625 520.362 660.762 516.003C664.897 511.642 669.182 507.128 674.217 502.408C683.041 494.137 692.626 486.728 704.38 479.099C730.744 462.192 758.632 440.528 780.898 419.658ZM414.406 71.385C446.507 41.297 491.421 30.2821 547.897 38.6405C585.816 43.7247 620.912 57.0937 649.373 77.2855C679.784 98.7598 704.842 130.235 725.347 158.195C741.774 181.227 759.636 205.916 778.927 230.416C783.635 236.396 788.17 242.057 792.784 247.718C815.942 274.066 828.702 288.585 838.152 322.935C844.792 345.533 824.81 380.141 781.892 420.367C759.561 441.298 731.59 463.027 705.148 479.982C693.483 487.559 683.967 494.908 675.209 503.117C670.209 507.803 665.94 512.302 661.814 516.651C657.664 521.025 653.74 525.163 649.113 529.5C641.062 537.046 632.443 543.635 621.986 550.239C605.22 560.768 590.034 571.365 575.356 581.61C558.161 593.613 541.922 604.947 524.551 615.229C471.428 648.342 428.618 671.206 361.398 663.593C325.919 661.298 272.899 653.057 222.002 626.837C183.588 607.304 154.649 579.24 138.309 545.678C134.953 539.166 131.968 532.418 129.426 525.628C115.61 489.325 118.063 448.551 136.169 413.753C153.427 377.426 179.912 346.231 205.962 317.934C213.218 308.989 221.214 299.596 229.704 290.04C244.766 273.863 259.629 257.743 273.993 242.168C295.692 218.639 316.181 196.418 337.158 174.16C349.501 159.007 359.559 144.165 369.291 129.811C378.27 116.561 386.75 104.046 395.979 92.9548C401.405 85.0211 407.617 77.7483 414.406 71.385Z" fill="#EDE9F7"/>
</g>
</svg>
