<svg width="80" height="80" viewBox="0 0 80 80" fill="none" xmlns="http://www.w3.org/2000/svg">
<path fill-rule="evenodd" clip-rule="evenodd" d="M54.5371 62.5867C54.6427 62.3835 54.744 62.2042 54.8302 62.0185C54.8846 61.8998 54.9684 61.876 55.0865 61.8792C55.7946 61.8992 56.5027 61.921 57.2115 61.9279C57.8134 61.9342 58.4165 61.9229 59.019 61.916C59.6977 61.9079 60.3765 61.8723 61.0546 61.8917C61.9577 61.9179 62.8377 62.0948 63.6546 62.4967C64.6302 62.9773 65.3684 63.7092 65.8715 64.6735C66.1879 65.285 66.3854 65.9509 66.4534 66.636C66.5609 67.641 66.4902 68.6229 66.1715 69.5842C65.7765 70.7754 65.0265 71.6873 63.9846 72.3704C63.1827 72.896 62.3034 73.2067 61.3609 73.3842C60.3634 73.5723 59.3627 73.5117 58.3621 73.5148C57.2646 73.5192 56.1677 73.4954 55.0702 73.4829C54.8784 73.481 54.8509 73.4448 54.9015 73.2617L54.9484 73.0929C55.0552 72.7567 55.1127 72.7417 55.454 72.6854C55.696 72.6479 55.9275 72.5599 56.1334 72.4273C56.2484 72.351 56.2959 72.1523 56.3409 71.9992C56.3796 71.8654 56.3815 71.7185 56.3827 71.5773C56.3984 69.4367 56.4146 67.2967 56.4234 65.1573C56.4258 64.6162 56.4122 64.0751 56.3827 63.5348C56.3615 63.1567 56.1596 62.8979 55.7096 62.8085C55.3596 62.7392 55.0071 62.6854 54.6552 62.6235L54.5371 62.5867ZM64.5846 67.7698C64.5371 67.3435 64.514 66.9135 64.4377 66.4935C64.2552 65.4854 63.814 64.6073 63.039 63.9192C61.7859 62.8073 60.2771 62.636 58.6959 62.7685C58.3359 62.7985 58.2584 62.9217 58.2527 63.2917C58.244 63.8167 58.2352 64.3417 58.2346 64.8667C58.2321 66.5317 58.2321 68.1967 58.2346 69.8617C58.2346 70.3358 58.2411 70.8092 58.254 71.2817C58.269 71.7654 58.4446 72.1748 58.9184 72.3623C59.6652 72.6579 60.4509 72.6929 61.2346 72.5723C62.4865 72.3804 63.3621 71.651 63.9496 70.5579C64.4146 69.6904 64.5459 68.7435 64.5846 67.7698ZM67.6277 73.4392C67.6127 73.1798 67.719 72.9654 67.8502 72.7685C67.8859 72.7154 68.0084 72.7179 68.0927 72.701L68.809 72.5592C69.0621 72.5054 69.1952 72.3354 69.2309 72.0873C69.2546 71.9235 69.2771 71.7579 69.279 71.5923C69.296 70.2817 69.3083 68.9711 69.3159 67.6604C69.3221 66.3479 69.3171 65.0354 69.3171 63.7229L69.3115 63.4723C69.2859 63.0504 69.0821 62.8317 68.6634 62.7698L67.7552 62.6317C67.6434 62.6167 67.6027 62.5629 67.6434 62.4635C67.7134 62.2942 67.7802 62.1185 67.879 61.966C67.9159 61.9098 68.0402 61.8879 68.124 61.8898C68.5577 61.896 68.9915 61.9285 69.4252 61.9279L73.2009 61.9054C73.9284 61.9048 74.6309 62.0317 75.2834 62.3798C76.0015 62.7623 76.4034 63.3542 76.5184 64.1604C76.6384 65.0073 76.3815 65.721 75.7627 66.2879C75.5084 66.5217 75.179 66.6742 74.884 66.8642L74.7877 66.9242C75.0615 67.0248 75.3221 67.1117 75.5759 67.2154C76.3184 67.5198 76.909 67.9954 77.2215 68.7548C77.4684 69.3542 77.4684 69.9792 77.3221 70.6004C77.0946 71.5729 76.454 72.2198 75.6209 72.7092C74.839 73.1685 73.9927 73.436 73.0915 73.481C72.2602 73.5229 71.4252 73.5073 70.5921 73.5167L70.1096 73.5192C69.3067 73.5007 68.5037 73.4807 67.7009 73.4592L67.6277 73.4392ZM71.0884 69.6335H71.0965C71.0965 70.0448 71.0909 70.456 71.0984 70.8673C71.1034 71.1335 71.094 71.4073 71.1515 71.6635C71.2377 72.0467 71.4127 72.3923 71.8427 72.5023C72.4177 72.6528 73.0181 72.6792 73.604 72.5798C74.3396 72.4517 74.9265 72.0829 75.2484 71.3823C75.4871 70.8617 75.5227 70.3098 75.4409 69.746C75.3321 69.0035 74.9377 68.4648 74.2821 68.1117C73.8521 67.8798 73.3934 67.7379 72.9046 67.7192C72.3571 67.6985 71.809 67.6973 71.2615 67.6804C71.1077 67.676 71.0865 67.7542 71.0871 67.8804C71.0902 68.4642 71.0884 69.0485 71.0884 69.6335ZM72.254 66.8367C72.5534 66.8217 72.8921 66.8173 73.229 66.7835C73.874 66.7192 74.3284 66.3948 74.5652 65.7779C74.6859 65.4648 74.6809 65.1423 74.684 64.8167C74.6934 63.9685 74.1984 63.2735 73.3927 62.986C72.7709 62.7642 72.1296 62.7604 71.4846 62.7779C71.2234 62.7848 71.1065 62.8992 71.1027 63.1623L71.064 66.5929C71.0621 66.7292 71.1209 66.7879 71.2534 66.7923L72.254 66.8367Z" fill="#FFD292"/>
<path fill-rule="evenodd" clip-rule="evenodd" d="M6.58845 72.7808L6.54283 73.3708C6.11783 73.3708 5.72595 73.3677 5.33408 73.372C4.59595 73.3795 3.85783 73.3914 3.11908 73.402L3.04783 73.4064C2.9422 73.3939 2.75033 73.3939 2.74533 73.3627C2.71408 73.187 2.72408 73.0027 2.7322 72.8208C2.73283 72.8002 2.8047 72.7739 2.84658 72.7639L3.42095 72.6358C3.77908 72.5427 3.90533 72.3883 3.9222 72.0183C3.94158 71.6014 3.96095 71.1839 3.96283 70.767C3.96845 69.7408 3.9622 68.7158 3.96658 67.6895C3.9672 67.4495 3.88408 67.2708 3.66033 67.1733C3.39444 67.0553 3.1267 66.9415 2.8572 66.832C2.7297 66.7808 2.56408 66.7527 2.57908 66.5814C2.59408 66.407 2.7547 66.3614 2.90595 66.327C3.5322 66.1839 4.15908 66.0445 4.78345 65.892C4.9847 65.8427 5.1772 65.7595 5.41783 65.6758C5.43033 65.8058 5.45345 65.9295 5.45095 66.0533L5.41408 66.6414C5.41345 66.7077 5.44783 66.7964 5.4972 66.8333C5.5272 66.8564 5.62783 66.8145 5.67783 66.7758C6.21158 66.3695 6.77658 66.0189 7.42095 65.8145C8.41908 65.4977 9.27595 65.7914 9.87595 66.652C10.0872 66.9552 10.0878 66.9552 10.381 66.7433C10.8841 66.3777 11.4103 66.0552 11.9991 65.8427C13.2916 65.3758 14.5335 65.9683 14.9828 67.2702C15.1466 67.7427 15.2091 68.2308 15.2078 68.7295L15.196 72.0408C15.1953 72.3139 15.286 72.4695 15.546 72.5545C15.8378 72.6502 16.1403 72.7158 16.4691 72.802L16.3928 73.3714C16.0191 73.3714 15.6753 73.3689 15.3316 73.372C14.4916 73.3795 13.6516 73.3839 12.8122 73.4033C12.666 73.407 12.6278 73.3708 12.6203 73.2339C12.596 72.7958 12.5922 72.7964 13.0047 72.6977L13.1435 72.662C13.5466 72.552 13.681 72.4283 13.6841 72.0195C13.6935 70.8458 13.7178 69.6689 13.6585 68.4977C13.5966 67.2827 12.6322 66.6358 11.4547 66.947C11.0747 67.0512 10.7168 67.2236 10.3985 67.4558C10.2891 67.5339 10.2685 67.6239 10.2772 67.7608C10.311 68.2783 10.3303 68.7962 10.3353 69.3145C10.3428 70.2214 10.3316 71.1283 10.3353 72.0358C10.3366 72.4033 10.4622 72.5439 10.8253 72.6289L11.3647 72.7533L11.4647 72.7758C11.4722 72.9483 11.4791 73.1208 11.471 73.2933C11.466 73.4014 11.3822 73.4108 11.2885 73.4089C10.7641 73.3958 10.2391 73.3783 9.7147 73.3795C9.07658 73.3808 8.43908 73.3989 7.80158 73.4102H7.65158C7.65158 73.227 7.64283 73.052 7.65783 72.8777C7.66095 72.8358 7.7347 72.777 7.78533 72.7639L8.41408 72.6308C8.68095 72.5652 8.80845 72.4283 8.82345 72.157C8.8947 70.9008 8.94595 69.6439 8.82783 68.3883C8.79898 68.1403 8.73018 67.8986 8.62408 67.6727C8.3022 66.9614 7.57783 66.6645 6.7422 66.8783C6.34533 66.9795 5.9872 67.1614 5.64845 67.3908C5.5748 67.4365 5.51429 67.5006 5.47287 67.5767C5.43145 67.6529 5.41055 67.7385 5.4122 67.8252C5.41303 69.0785 5.41574 70.3314 5.42033 71.5839L5.4272 72.067C5.4347 72.4039 5.57783 72.5814 5.9122 72.6539C6.1272 72.7027 6.3447 72.7358 6.58845 72.7808Z" fill="#F0AB48"/>
<path fill-rule="evenodd" clip-rule="evenodd" d="M44.3748 65.8022C44.4716 66.2734 44.4698 66.6972 44.1235 67.0184C43.7798 67.3378 43.3448 67.2303 42.9204 67.1591C42.9598 67.3828 43.0035 67.5728 43.0248 67.7653C43.1791 69.1959 42.5635 70.2578 41.2366 70.8647C40.7354 71.0934 40.2035 71.1784 39.6604 71.2222C39.3904 71.2434 39.1541 71.4497 39.1285 71.6716C39.1023 71.8966 39.2435 72.1278 39.526 72.1953C39.8591 72.2747 40.2066 72.2972 40.5485 72.3366C41.2823 72.4203 42.0241 72.4584 42.7491 72.5897C43.8454 72.7872 44.4573 73.7441 44.2641 74.8453C44.0923 75.8253 43.5248 76.5384 42.7335 77.0853C41.4004 78.0091 39.9379 78.2791 38.3804 77.8078C37.4898 77.5378 36.8616 76.9522 36.6448 76.0047C36.536 75.5303 36.6516 75.1009 37.0085 74.7791C37.4329 74.3978 37.8948 74.0578 38.3391 73.6978L38.4829 73.5534L38.3179 73.4378C37.8648 73.2228 37.5023 72.9284 37.3616 72.4172C37.3135 72.2441 37.3635 72.1303 37.5104 72.0416C37.7604 71.8911 38.0089 71.738 38.256 71.5822C38.3723 71.5097 38.4873 71.4347 38.5954 71.3509C38.7429 71.2384 38.7298 71.1547 38.5535 71.0897C38.1435 70.9384 37.7791 70.7191 37.4966 70.3816C37.0248 69.8184 36.891 69.1478 36.9298 68.4397C36.9904 67.3334 37.591 66.6047 38.5673 66.1359C39.7279 65.5791 40.8923 65.5441 42.0754 66.0516C42.5129 66.2391 42.9741 66.2791 43.4435 66.2466C43.7941 66.2216 44.1004 66.0891 44.3748 65.8022ZM40.0979 73.7278C39.2266 73.7203 38.9535 73.8278 38.4423 74.3484C37.8698 74.9322 37.8729 75.7416 38.4441 76.3278C38.8779 76.7722 39.4191 76.9803 40.021 77.0428C40.7241 77.1153 41.4166 77.0859 42.0554 76.7341C42.7366 76.3572 43.0754 75.6572 42.9223 74.9522C42.7954 74.3703 42.3666 74.1041 41.8448 73.9509C41.251 73.7772 40.6373 73.7441 40.0979 73.7278ZM38.3866 68.1603C38.4185 68.4022 38.4316 68.6472 38.4854 68.8841C38.6248 69.4978 38.8916 70.0372 39.5023 70.3103C40.2191 70.6322 41.1348 70.4941 41.4485 69.4878C41.663 68.8182 41.638 68.0948 41.3779 67.4416C41.2681 67.1427 41.0697 66.8845 40.8091 66.7016C40.1866 66.2672 39.0635 66.2097 38.606 67.1697C38.4573 67.4816 38.3991 67.8134 38.3866 68.1603Z" fill="#FCDAAA"/>
<path fill-rule="evenodd" clip-rule="evenodd" d="M29.5936 65.6487C29.6167 65.7556 29.663 65.8769 29.6642 65.9987C29.6661 66.2306 29.6411 66.4625 29.628 66.6944V66.8956L29.8242 66.7456C30.3617 66.3031 30.9392 65.9262 31.6117 65.7231C32.8255 65.3575 34.038 66.0219 34.4336 67.2581C34.5836 67.7281 34.643 68.2112 34.6486 68.7025C34.6611 69.7937 34.6686 70.885 34.6798 71.9762C34.6836 72.3681 34.7286 72.4381 35.0992 72.5512C35.3101 72.6142 35.5252 72.662 35.743 72.6944C35.8623 72.7131 35.9136 72.76 35.9073 72.8769L35.9086 72.9844C35.9042 73.4362 35.873 73.4569 35.4348 73.4556C34.3861 73.4537 33.338 73.46 32.2892 73.4687C31.9767 73.4712 31.9761 73.4806 31.9448 73.1719L31.9386 72.9944C31.958 72.7281 31.9642 72.7306 32.2261 72.6919C32.4023 72.6656 32.5773 72.625 32.7492 72.58C32.9261 72.5344 33.0111 72.4037 33.0348 72.2287C33.0467 72.14 33.0623 72.0512 33.0617 71.9625C33.0467 70.77 33.0661 69.5762 33.0011 68.3856C32.9486 67.4225 32.2136 66.8487 31.2467 66.9144C30.7807 66.9467 30.3327 67.1075 29.9523 67.3787C29.6942 67.5594 29.6423 67.82 29.6436 68.1006C29.6494 69.2156 29.6586 70.3308 29.6711 71.4462C29.6736 71.6906 29.6805 71.935 29.7036 72.1775C29.728 72.4425 29.8211 72.5494 30.0811 72.6069C30.3298 72.6619 30.5836 72.6937 30.8492 72.7381L30.8717 72.9431C30.8805 73.4212 30.8305 73.4569 30.3661 73.455C29.2817 73.4506 28.1973 73.4575 27.1136 73.4694C26.943 73.4719 26.8705 73.4181 26.8748 73.2519L26.8723 73.1806C26.8442 72.75 26.8567 72.7337 27.2642 72.6637L27.4567 72.625C27.898 72.5256 28.0111 72.4081 28.0173 71.96C28.038 70.5406 28.0455 69.1219 28.0598 67.7025C28.0617 67.4987 27.9848 67.3406 27.7948 67.2562C27.5282 67.1394 27.26 67.0261 26.9905 66.9162C26.8417 66.855 26.6717 66.8162 26.6661 66.6106C26.6623 66.4656 26.8173 66.3375 27.0292 66.2944C27.4548 66.2081 27.8842 66.1362 28.3048 66.0306C28.7236 65.9262 29.1348 65.7862 29.5936 65.6487Z" fill="#F0AB48"/>
<path fill-rule="evenodd" clip-rule="evenodd" d="M53.0416 69.3554C53.0216 70.681 52.6772 71.7529 51.7397 72.5573C50.5522 73.5779 48.6997 73.9248 47.1853 73.1617C46.5391 72.836 46.0641 72.3367 45.7547 71.6885C45.2803 70.6917 45.1616 69.6435 45.4091 68.5698C45.6541 67.5079 46.2972 66.7385 47.2597 66.2404C48.2497 65.7285 49.2922 65.5285 50.3916 65.7973C51.7822 66.1367 52.7816 67.2704 52.9803 68.7142C53.0159 68.9673 53.0297 69.2235 53.0416 69.3554ZM51.4309 70.0735L51.3772 70.0673C51.3772 69.9423 51.3841 69.8173 51.3759 69.6923C51.3303 68.9135 51.1553 68.1717 50.7041 67.5198C50.2759 66.9023 49.6928 66.5379 48.9341 66.4848C48.0847 66.4248 47.3709 66.8998 47.1203 67.7673C46.7441 69.0698 46.8716 70.3392 47.5328 71.5323C47.8209 72.0523 48.2478 72.436 48.8197 72.6379C49.9403 73.0323 50.9341 72.5217 51.2259 71.3742C51.3334 70.9504 51.3647 70.5073 51.4309 70.0735Z" fill="#FCDAAA"/>
<path fill-rule="evenodd" clip-rule="evenodd" d="M25.5117 69.4591C25.4886 70.4103 25.2642 71.2897 24.6767 72.0541C24.0474 72.8728 23.1824 73.3103 22.1986 73.4947C21.0355 73.7122 19.943 73.5147 19.0086 72.7341C18.5649 72.3628 18.2617 71.8872 18.0617 71.346C17.7336 70.4585 17.6517 69.5491 17.8536 68.6222C18.0692 67.6303 18.6292 66.8722 19.4974 66.3635C20.5011 65.7766 21.5842 65.5147 22.7411 65.7785C24.2286 66.1185 25.0874 67.0878 25.4049 68.5553C25.4686 68.8516 25.4774 69.1578 25.5117 69.4591ZM23.883 70.0866L23.8399 70.0803V69.9016C23.8155 69.0291 23.6449 68.1978 23.1242 67.4728C22.7386 66.9347 22.2224 66.5972 21.5605 66.5028C20.4817 66.3491 19.7767 66.9891 19.543 67.8585C19.238 68.9941 19.3336 70.116 19.8055 71.1928C20.0999 71.8641 20.5649 72.3872 21.2792 72.641C22.393 73.0366 23.4017 72.5128 23.6836 71.3697C23.7874 70.9516 23.8186 70.5153 23.883 70.0866Z" fill="#F0AB48"/>
<path fill-rule="evenodd" clip-rule="evenodd" d="M51.4753 20.9648C52.2422 23.1817 52.7934 25.4448 52.9753 27.7898C53.2003 30.6998 53.0978 33.5898 52.4841 36.4517L52.4053 36.6805C52.2128 36.6811 52.0166 36.6567 51.8284 36.6861C50.2391 36.9361 48.6516 37.1948 47.0634 37.4523C45.4216 37.7186 43.7784 37.9742 42.1397 38.258C41.5591 38.358 40.8403 38.2386 40.6059 39.0411L40.4934 39.0792L40.5728 34.2805L40.4922 22.7017L41.2572 22.5705C42.5078 22.3661 43.7584 22.158 45.0109 21.9586C46.5047 21.7217 47.9997 21.4905 49.4947 21.2592C50.1547 21.158 50.8153 21.0636 51.4753 20.9648Z" fill="#439934"/>
<path fill-rule="evenodd" clip-rule="evenodd" d="M38.9149 53.0697C38.1081 52.3759 37.2731 51.7128 36.5 50.9828C32.3387 47.0578 29.2943 42.4372 27.795 36.8666C27.3818 35.3341 27.1068 33.7759 27.0181 32.1922C26.9556 31.0834 26.8662 29.9653 26.945 28.8622C27.1531 25.9291 27.5775 23.0241 28.4375 20.1984L28.485 20.1328C28.5687 20.2441 28.6887 20.3428 28.7312 20.4684C29.5708 22.9409 30.4049 25.4157 31.2337 27.8928C33.8393 35.6747 36.4418 43.4584 39.0518 51.2391C39.1031 51.3909 39.235 51.5153 39.33 51.6522L38.9149 53.0697Z" fill="#45A538"/>
<path fill-rule="evenodd" clip-rule="evenodd" d="M51.4757 20.9654C50.815 21.0635 50.1544 21.1585 49.495 21.2598C48 21.491 46.505 21.7223 45.0113 21.9591C43.7594 22.1579 42.5088 22.366 41.2575 22.571L40.4925 22.7023L40.4863 22.2035C40.4607 21.7935 40.4182 21.3835 40.4125 20.9735L40.3269 13.1273C40.3069 11.4904 40.2769 9.85352 40.2438 8.21727C40.2269 7.20028 40.1976 6.18353 40.1557 5.16727C40.1307 4.62164 40.0425 4.07852 40.0075 3.53289C39.9869 3.21914 40.0144 2.90289 40.0213 2.58789C40.4113 3.34352 40.7932 4.10477 41.1938 4.85477C41.8269 6.04039 42.8363 6.91414 43.7457 7.86727C47.3369 11.6366 49.8863 16.0166 51.4757 20.9654Z" fill="#46A037"/>
<path fill-rule="evenodd" clip-rule="evenodd" d="M40.4941 39.0795L40.6066 39.0414C40.841 38.2389 41.5598 38.3583 42.1404 38.2583C43.7791 37.9745 45.4223 37.7189 47.0641 37.4526C48.6523 37.1958 50.2398 36.937 51.8291 36.6864C52.0173 36.657 52.2135 36.6814 52.406 36.6808C52.1091 37.7408 51.8754 38.8239 51.4985 39.8545C51.0704 41.0233 50.5529 42.1645 50.0035 43.2833C49.1805 44.9516 48.1624 46.5163 46.9704 47.9445C46.0541 49.0458 45.0329 50.0651 44.0098 51.0708C43.4435 51.6264 42.7773 52.0795 42.156 52.5795L41.9948 52.4695L41.4154 51.9745L40.816 50.6595C40.4068 49.126 40.1833 47.5489 40.1504 45.962L40.1616 45.6945L40.2435 44.5358C40.2704 44.1402 40.3066 43.7451 40.3235 43.3495C40.3835 41.927 40.4373 40.5033 40.4941 39.0795Z" fill="#409433"/>
<path fill-rule="evenodd" clip-rule="evenodd" d="M40.4957 39.0795C40.4395 40.5033 40.3857 41.9277 40.3251 43.3514C40.3082 43.7477 40.2726 44.1427 40.2451 44.5377L39.8801 44.6758C39.0688 42.2877 38.257 39.9245 37.4632 37.5558C36.1501 33.6364 34.8532 29.7114 33.542 25.7908C32.4831 22.6266 31.4168 19.4649 30.3432 16.3058C30.2926 16.1583 30.1488 16.042 30.0488 15.9114L32.3863 11.6133C32.467 11.7527 32.5726 11.8833 32.6232 12.0333C33.7045 15.2333 34.7838 18.4339 35.8538 21.6377C37.2463 25.8064 38.6295 29.977 40.0207 34.1464C40.0763 34.3127 40.1676 34.4664 40.2551 34.6533L40.5751 34.2808L40.4957 39.0795Z" fill="#4FAA41"/>
<path fill-rule="evenodd" clip-rule="evenodd" d="M30.0469 15.9121C30.1475 16.0427 30.2913 16.159 30.3413 16.3065C31.415 19.4656 32.4812 22.6273 33.54 25.7915C34.8513 29.7121 36.1481 33.6371 37.4612 37.5565C38.255 39.9252 39.0669 42.2877 39.8781 44.6765L40.2431 44.5384L40.1613 45.6971L40.0869 45.964C39.96 47.2321 39.8531 48.5027 39.6981 49.7684C39.6206 50.4027 39.455 51.0252 39.3294 51.6527C39.235 51.5159 39.1025 51.3915 39.0513 51.2396C36.4406 43.459 33.8387 35.6752 31.2331 27.8934C30.4041 25.4168 29.5699 22.942 28.7306 20.469C28.6881 20.3434 28.5681 20.2446 28.4844 20.1334L30.0469 15.9121Z" fill="#4AA73C"/>
<path fill-rule="evenodd" clip-rule="evenodd" d="M40.5735 34.2805L40.2535 34.653C40.166 34.4662 40.0748 34.3124 40.0191 34.1462C38.6279 29.9768 37.2448 25.8062 35.8523 21.6374C34.781 18.4341 33.7041 15.2326 32.6216 12.033C32.571 11.883 32.4654 11.7524 32.3848 11.613L35.2754 7.81055C35.3666 7.9318 35.4966 8.03992 35.5435 8.1768C36.3456 10.5268 37.1418 12.8787 37.9323 15.2324C38.671 17.4312 39.3985 19.6324 40.146 21.8274C40.196 21.9743 40.3704 22.078 40.4866 22.203L40.4929 22.7018L40.5735 34.2805Z" fill="#57AE47"/>
<path fill-rule="evenodd" clip-rule="evenodd" d="M40.4866 22.2029C40.3698 22.0785 40.196 21.9748 40.146 21.8273C39.3991 19.6323 38.671 17.431 37.9323 15.2323C37.1416 12.8785 36.3454 10.5266 35.5435 8.17664C35.4966 8.03977 35.3666 7.93164 35.2754 7.81039C36.2154 6.88977 37.126 5.93602 38.1041 5.05789C38.9735 4.27789 39.6723 3.44164 39.7048 2.20852L39.7735 1.96289L40.021 2.58664C40.0148 2.90164 39.9866 3.21789 40.0073 3.53164C40.0429 4.07727 40.131 4.62039 40.1554 5.16602C40.201 6.18164 40.2229 7.19914 40.2435 8.21602C40.2766 9.85227 40.3066 11.4891 40.3266 13.126L40.4123 20.9723C40.4185 21.3829 40.4616 21.7929 40.4866 22.2029Z" fill="#60B24F"/>
<path fill-rule="evenodd" clip-rule="evenodd" d="M39.3297 51.6508C39.4553 51.0233 39.6209 50.4008 39.6984 49.7664C39.8534 48.5014 39.9603 47.2302 40.0872 45.962L40.1191 45.957L40.1503 45.9627C40.1832 47.5495 40.4067 49.1266 40.8159 50.6602C40.7316 50.7714 40.6134 50.8695 40.5684 50.9945C40.2216 51.9733 39.8941 52.9602 39.5453 53.9383C39.4978 54.072 39.3641 54.1764 39.2709 54.2933L38.9141 53.0683L39.3297 51.6508Z" fill="#FFE3BC"/>
<path fill-rule="evenodd" clip-rule="evenodd" d="M39.2715 54.2952C39.3646 54.1777 39.4984 54.074 39.5459 53.9402C39.8946 52.9621 40.2221 51.9752 40.569 50.9965C40.6134 50.8715 40.7321 50.7734 40.8165 50.6621L41.4159 51.9771C41.2977 52.1446 41.134 52.2965 41.0684 52.4834L39.9209 55.8534C39.8734 55.989 39.7127 56.084 39.604 56.1984L39.2715 54.2952Z" fill="#FFEED5"/>
<path fill-rule="evenodd" clip-rule="evenodd" d="M39.6035 56.1978C39.7116 56.0834 39.8729 55.9884 39.9204 55.8528L41.0679 52.4828C41.1329 52.2959 41.2973 52.1441 41.4154 51.9766L41.9954 52.4709C41.7154 52.7478 41.5598 53.0678 41.6535 53.4722L41.4773 54.0491C41.3973 54.1478 41.281 54.2341 41.2416 54.3472C40.841 55.4947 40.4591 56.6484 40.0554 57.7953C40.0041 57.9403 39.8623 58.0547 39.7629 58.1834L39.6035 56.1978Z" fill="#FEDAA6"/>
<path fill-rule="evenodd" clip-rule="evenodd" d="M39.7634 58.1813C39.8634 58.0525 40.0053 57.9381 40.0559 57.7931C40.4597 56.6463 40.8422 55.4925 41.2422 54.345C41.2815 54.2319 41.3978 54.1462 41.4778 54.0469L41.2347 56.6944C41.1697 56.7694 41.0759 56.835 41.0447 56.9219L40.2359 59.2394C40.179 59.3975 40.0703 59.5388 39.9853 59.6869C39.9097 59.5881 39.7747 59.4925 39.7684 59.39C39.7447 58.9888 39.7615 58.5844 39.7634 58.1813Z" fill="#CECDB7"/>
<path fill-rule="evenodd" clip-rule="evenodd" d="M39.9863 59.6878C40.0713 59.5397 40.1801 59.3984 40.237 59.2403L41.0457 56.9228C41.077 56.8353 41.1713 56.7703 41.2357 56.6953L41.242 58.4328L40.6601 59.9247L39.9863 59.6878Z" fill="#FEDFB3"/>
<path fill-rule="evenodd" clip-rule="evenodd" d="M40.6602 59.9255L41.242 58.4336L41.362 60.1986L40.6602 59.9255Z" fill="#EBE9DC"/>
<path fill-rule="evenodd" clip-rule="evenodd" d="M41.654 53.472C41.5609 53.0682 41.7159 52.7482 41.9959 52.4707L42.1572 52.5807L41.654 53.472Z" fill="#CECDB7"/>
<path fill-rule="evenodd" clip-rule="evenodd" d="M40.151 45.9628L40.1198 45.9572L40.0879 45.9622L40.1623 45.6953L40.151 45.9628Z" fill="#4FAA41"/>
</svg>
