<svg width="80" height="80" viewBox="0 0 80 80" fill="none" xmlns="http://www.w3.org/2000/svg">
<path d="M40.0004 74.9996C39.0561 75.0001 38.1283 74.7517 37.3104 74.2796L28.7504 69.2121C27.4729 68.4971 28.0954 68.2446 28.5179 68.0971C29.8769 67.678 31.1779 67.0901 32.3904 66.3471C32.4918 66.2994 32.6037 66.2787 32.7154 66.287C32.8271 66.2954 32.9348 66.3324 33.0279 66.3946L39.6054 70.3021C39.7279 70.3669 39.8644 70.4008 40.0029 70.4008C40.1415 70.4008 40.2779 70.3669 40.4004 70.3021L66.0504 55.4971C66.171 55.4257 66.2707 55.324 66.3395 55.202C66.4084 55.0801 66.4441 54.9421 66.4429 54.8021V25.1871C66.4432 25.0449 66.4068 24.905 66.3372 24.7811C66.2675 24.6571 66.167 24.5533 66.0454 24.4796L40.3954 9.68709C40.2747 9.61825 40.1381 9.58206 39.9992 9.58206C39.8602 9.58206 39.7236 9.61825 39.6029 9.68709L13.9679 24.4846C13.8456 24.5569 13.7441 24.6596 13.6732 24.7826C13.6022 24.9057 13.5642 25.045 13.5629 25.1871V54.7896C13.5645 54.9289 13.6025 55.0654 13.6731 55.1856C13.7437 55.3057 13.8445 55.4053 13.9654 55.4746L21.0004 59.5346C24.8129 61.4396 27.1479 59.1946 27.1479 56.9396V27.7121C27.1479 27.5132 27.2269 27.3224 27.3676 27.1818C27.5082 27.0411 27.699 26.9621 27.8979 26.9621H31.1479C31.3468 26.9621 31.5376 27.0411 31.6782 27.1818C31.8189 27.3224 31.8979 27.5132 31.8979 27.7121V56.9421C31.8979 62.0296 29.1279 64.9421 24.3029 64.9421C22.2216 64.9768 20.173 64.4203 18.3954 63.3371L11.6529 59.4696C10.8351 58.9921 10.1564 58.3089 9.68451 57.4879C9.21259 56.6669 8.96381 55.7366 8.96292 54.7896V25.1871C8.95998 24.2383 9.20707 23.3055 9.6793 22.4826C10.1515 21.6597 10.8323 20.9757 11.6529 20.4996L37.3054 5.68959C38.132 5.23839 39.0587 5.00195 40.0004 5.00195C40.9421 5.00195 41.8688 5.23839 42.6954 5.68959L68.3454 20.4996C69.163 20.9763 69.8417 21.6586 70.314 22.4787C70.7863 23.2988 71.0359 24.2282 71.0379 25.1746V54.7896C71.0368 55.7368 70.7876 56.6673 70.3152 57.4883C69.8429 58.3094 69.1637 58.9925 68.3454 59.4696L42.6954 74.2796C41.8761 74.7526 40.9465 75.0009 40.0004 74.9996Z" fill="#83CD29"/>
<path d="M35.1348 44.8833C35.1348 44.6844 35.2138 44.4936 35.3544 44.353C35.4951 44.2123 35.6859 44.1333 35.8848 44.1333H39.2023C39.3795 44.1339 39.5509 44.1972 39.6859 44.3121C39.8209 44.4269 39.9108 44.5859 39.9398 44.7608C40.4398 48.1383 41.9398 49.8408 48.7223 49.8408C54.1248 49.8408 56.4273 48.6183 56.4273 45.7508C56.4273 44.0983 55.7748 42.8708 47.3773 42.0483C40.3573 41.3533 36.0173 39.7983 36.0173 34.1883C36.0173 29.0133 40.3798 25.9258 47.6923 25.9258C55.9098 25.9258 59.9773 28.7783 60.4923 34.8983C60.5001 35.0005 60.487 35.1032 60.4536 35.2C60.4202 35.2969 60.3674 35.386 60.2983 35.4616C60.2292 35.5373 60.1453 35.598 60.0518 35.64C59.9583 35.682 59.8572 35.7044 59.7548 35.7058H56.4148C56.2472 35.7034 56.0853 35.645 55.9548 35.5399C55.8243 35.4348 55.7327 35.289 55.6948 35.1258C54.8973 31.5733 52.9448 30.4383 47.6948 30.4383C41.7948 30.4383 41.1098 32.4933 41.1098 34.0333C41.1098 35.8983 41.9198 36.4433 49.8848 37.4958C57.7673 38.5383 61.5123 40.0133 61.5123 45.5533C61.5123 51.1433 56.8523 54.3433 48.7248 54.3433C37.4873 54.3583 35.1348 49.2058 35.1348 44.8833Z" fill="#83CD29"/>
</svg>
