<svg width="80" height="74" viewBox="0 0 80 74" fill="none" xmlns="http://www.w3.org/2000/svg">
<g clip-path="url(#clip0_4992_868)">
<path d="M65.7759 23.9604C64.9245 23.6571 64.0659 23.376 63.2009 23.1175C63.3462 22.5008 63.48 21.8916 63.5988 21.2931C65.5481 11.4651 64.2737 3.5474 59.9209 0.940522C55.7475 -1.5586 48.9222 1.0473 42.0291 7.27791C41.3497 7.89304 40.6854 8.52592 40.0369 9.17594C39.6027 8.74372 39.1608 8.31988 38.7116 7.90464C31.4872 1.24269 24.2459 -1.56509 19.8978 1.04925C15.7281 3.55616 14.4934 10.9993 16.2484 20.3136C16.423 21.2361 16.6202 22.1538 16.8397 23.0659C15.8147 23.3684 14.8256 23.6903 13.8791 24.0331C5.40906 27.1002 0 31.9066 0 36.8922C0 42.0414 5.80688 47.2061 14.6288 50.3378C15.344 50.5906 16.0651 50.8249 16.7916 51.0405C16.5557 52.0228 16.3463 53.0118 16.1634 54.0063C14.4903 63.1589 15.7969 70.4262 19.9553 72.9172C24.2503 75.4897 31.4591 72.8458 38.4781 66.473C39.0473 65.9549 39.6039 65.4221 40.1475 64.8752C40.8499 65.5791 41.571 66.2624 42.31 66.9245C49.1094 73.0009 55.8244 75.4546 59.9788 72.9568C64.2697 70.3769 65.6644 62.5699 63.8538 53.0716C63.7111 52.3275 63.5512 51.587 63.3741 50.8509C63.8803 50.6951 64.3772 50.5348 64.8616 50.368C74.0328 47.2123 80 42.1102 80 36.8922C80 31.8884 74.4163 27.0495 65.7759 23.9604ZM63.7869 46.999C63.349 47.1492 62.901 47.2947 62.4431 47.4356C61.4306 44.1065 60.0644 40.5669 58.3922 36.9094C59.9878 33.3392 61.3016 29.8447 62.2856 26.5374C63.1041 26.7834 63.8981 27.0427 64.6637 27.3163C72.0669 29.9635 76.5825 33.8767 76.5825 36.8922C76.5825 40.104 71.7056 44.2737 63.7869 46.999ZM60.5013 53.7609C61.3019 57.9608 61.4159 61.7581 60.8856 64.7269C60.4094 67.3945 59.4512 69.1727 58.2662 69.8852C55.7453 71.4009 50.3537 69.4308 44.5391 64.2339C43.8517 63.6183 43.1809 62.983 42.5275 62.3287C44.7819 59.7682 47.0347 56.7917 49.2334 53.4857C53.1009 53.1293 56.7547 52.5464 60.0681 51.7509C60.2317 52.4351 60.376 53.1051 60.5013 53.7609ZM27.2738 69.6232C24.8106 70.5265 22.8487 70.5525 21.6628 69.8423C19.1394 68.3308 18.0903 62.4955 19.5212 54.6684C19.6914 53.7435 19.8861 52.8237 20.1053 51.91C23.3822 52.663 27.0094 53.2043 30.8859 53.5308C33.0997 56.7657 35.4175 59.739 37.7534 62.3427C37.257 62.8415 36.7488 63.3277 36.2294 63.8006C33.1253 66.6184 30.015 68.6177 27.2738 69.6232ZM15.7344 46.9792C11.8334 45.5943 8.61188 43.7946 6.40375 41.8307C4.41938 40.0661 3.41781 38.3138 3.41781 36.8922C3.41781 33.8666 7.76062 30.0076 15.0041 27.3848C15.8831 27.0667 16.8031 26.7665 17.7578 26.4848C18.7591 29.8667 20.0722 33.4028 21.6569 36.9785C20.0516 40.6071 18.7197 44.1997 17.7087 47.6215C17.0457 47.4242 16.3873 47.2101 15.7344 46.9792ZM19.6025 19.6317C18.0991 11.6517 19.0975 5.63206 21.6103 4.12122C24.2866 2.51205 30.2047 4.80637 36.4425 10.5589C36.8493 10.9348 37.2494 11.3184 37.6428 11.7095C35.3184 14.3017 33.0219 17.253 30.8278 20.4687C27.0653 20.8309 23.4637 21.4126 20.1525 22.1918C19.9484 21.3435 19.7651 20.4896 19.6025 19.6317ZM54.1109 28.4822C53.3288 27.0791 52.5177 25.6936 51.6781 24.3268C54.2306 24.6621 56.6762 25.107 58.9728 25.651C58.2834 27.9463 57.4241 30.3458 56.4125 32.806C55.6731 31.3489 54.9058 29.9074 54.1109 28.4822ZM40.0384 14.2466C41.6147 16.0203 43.1934 18.0004 44.7463 20.149C41.5963 19.9945 38.441 19.9939 35.2909 20.1471C36.8453 18.0183 38.4375 16.0407 40.0384 14.2466ZM25.8756 28.5062C25.0907 29.9199 24.3377 31.3525 23.6172 32.8027C22.6222 30.3513 21.7706 27.9408 21.0753 25.613C23.3578 25.0827 25.7919 24.6491 28.3281 24.32C27.4792 25.6952 26.6615 27.0912 25.8756 28.5062ZM28.4009 49.7166C25.7806 49.4128 23.31 49.0016 21.0281 48.4855C21.7344 46.1162 22.6047 43.6544 23.6212 41.1504C24.3446 42.6018 25.1008 44.0352 25.8891 45.4496C26.6997 46.9036 27.5391 48.3278 28.4009 49.7166ZM40.1328 59.7877C38.5128 57.9728 36.8972 55.9647 35.3194 53.8051C36.8513 53.8674 38.4128 53.8992 40 53.8992C41.6306 53.8992 43.2425 53.8612 44.8291 53.7879C43.2713 55.9865 41.6984 57.9974 40.1328 59.7877ZM56.4447 41.0226C57.5141 43.5541 58.4153 46.003 59.1309 48.3317C56.8116 48.8815 54.3072 49.3242 51.6684 49.653C52.514 48.2608 53.3328 46.8513 54.1244 45.4252C54.9292 43.9758 55.7028 42.5078 56.4447 41.0226ZM51.1641 43.6518C49.9522 45.8381 48.6722 47.983 47.3263 50.083C44.888 50.2625 42.4444 50.3516 40 50.3501C37.5103 50.3501 35.0887 50.2696 32.7569 50.1125C31.3756 48.0175 30.0713 45.8689 28.8466 43.6713C27.6275 41.4855 26.4891 39.2523 25.4334 36.9766C26.4865 34.7004 27.6217 32.4661 28.8366 30.2786L28.8363 30.2789C30.0505 28.0908 31.3445 25.9513 32.7153 23.8653C35.0944 23.6783 37.5341 23.581 39.9997 23.581C42.4766 23.581 44.9197 23.6793 47.2981 23.8675C48.6551 25.9505 49.9408 28.0825 51.1528 30.2598C52.3716 32.4426 53.5218 34.6659 54.6016 36.9263C53.5328 39.2097 52.3863 41.453 51.1641 43.6518ZM58.2141 4.01509C60.8928 5.61972 61.9347 12.0905 60.2516 20.5762C60.1436 21.118 60.0239 21.6686 59.8922 22.2282C56.5728 21.4324 52.9688 20.8407 49.1953 20.473C46.9972 17.2218 44.7194 14.266 42.4328 11.7072C43.0321 11.1073 43.6456 10.5229 44.2728 9.95457C50.1791 4.6165 55.6991 2.5088 58.2141 4.01509ZM40 29.4727C43.9453 29.4727 47.1438 32.7946 47.1438 36.8922C47.1438 40.9898 43.9453 44.3117 40 44.3117C36.0547 44.3117 32.8562 40.9898 32.8562 36.8922C32.8562 32.7946 36.0547 29.4727 40 29.4727Z" fill="#00D8FF"/>
</g>
<defs>
<clipPath id="clip0_4992_868">
<rect width="80" height="74" fill="white"/>
</clipPath>
</defs>
</svg>
