<svg width="24" height="24" viewBox="0 0 24 24" fill="none" xmlns="http://www.w3.org/2000/svg">
<path d="M22.4225 9.118C22.3287 8.82974 22.1517 8.57568 21.9138 8.38783C21.6759 8.19998 21.3877 8.08673 21.0856 8.06237L15.5543 7.61612L13.4187 2.45143C13.3032 2.17001 13.1066 1.92929 12.854 1.75987C12.6013 1.59046 12.304 1.5 11.9998 1.5C11.6956 1.5 11.3983 1.59046 11.1456 1.75987C10.893 1.92929 10.6964 2.17001 10.5809 2.45143L8.44714 7.61518L2.91308 8.06237C2.61043 8.08797 2.32207 8.20231 2.08412 8.39106C1.84617 8.57982 1.66921 8.8346 1.57542 9.12348C1.48163 9.41237 1.47517 9.7225 1.55686 10.015C1.63855 10.3076 1.80475 10.5695 2.03464 10.768L6.25339 14.4083L4.96808 19.8514C4.89716 20.147 4.91543 20.4569 5.02056 20.742C5.12569 21.0272 5.31298 21.2748 5.55876 21.4536C5.80455 21.6323 6.0978 21.7343 6.40148 21.7465C6.70516 21.7586 7.00564 21.6806 7.26496 21.5221L11.9993 18.6083L16.7365 21.5221C16.9958 21.6796 17.2959 21.757 17.5991 21.7443C17.9022 21.7317 18.1949 21.6297 18.4401 21.451C18.6854 21.2724 18.8724 21.0252 18.9774 20.7406C19.0825 20.4559 19.101 20.1466 19.0306 19.8514L17.7406 14.4074L21.9593 10.7671C22.1911 10.5689 22.3588 10.3064 22.4413 10.0128C22.5237 9.71927 22.5172 9.40784 22.4225 9.118ZM20.9843 9.63081L16.4187 13.5683C16.3146 13.6581 16.2371 13.7747 16.1948 13.9055C16.1525 14.0362 16.1469 14.1761 16.1787 14.3099L17.5737 20.1974C17.5773 20.2055 17.5777 20.2147 17.5747 20.223C17.5717 20.2314 17.5657 20.2383 17.5578 20.2424C17.5409 20.2555 17.5362 20.2527 17.5221 20.2424L12.3921 17.0877C12.2739 17.0155 12.1379 16.9776 11.9993 16.978V2.99987C12.0218 2.99987 12.0246 3.00737 12.0321 3.02424L14.3431 8.61174C14.3958 8.73946 14.4828 8.85012 14.5945 8.93152C14.7062 9.01291 14.8382 9.06187 14.9759 9.07299L20.9675 9.55675C20.9825 9.55675 20.9909 9.55675 20.9993 9.58393C21.0078 9.61112 20.9993 9.62143 20.9843 9.63081Z" fill="#FFA800"/>
</svg>
