<svg width="24" height="24" viewBox="0 0 24 24" fill="none" xmlns="http://www.w3.org/2000/svg">
<path d="M22.2452 9.17535C22.1648 8.92123 22.0099 8.69713 21.8006 8.53212C21.5913 8.36712 21.3373 8.26884 21.0714 8.25004L15.423 7.79348L13.2461 2.52473C13.1445 2.27777 12.9719 2.06656 12.75 1.91793C12.5282 1.7693 12.2672 1.68994 12.0002 1.68994C11.7331 1.68994 11.4721 1.7693 11.2503 1.91793C11.0284 2.06656 10.8558 2.27777 10.7542 2.52473L8.57734 7.7916L2.9289 8.25004C2.66282 8.26898 2.40858 8.36754 2.19925 8.53289C1.98992 8.69825 1.83518 8.92276 1.75515 9.17723C1.67173 9.43102 1.66531 9.70384 1.73672 9.96127C1.80813 10.2187 1.95416 10.4492 2.1564 10.6238L6.4689 14.3372L5.1564 19.8919C5.09481 20.1519 5.11174 20.4242 5.20503 20.6746C5.29831 20.9249 5.46378 21.1419 5.68046 21.2982C5.89448 21.4567 6.15139 21.5469 6.41755 21.557C6.6837 21.567 6.94668 21.4964 7.17203 21.3544L12.0002 18.3863L16.8358 21.3591C17.0611 21.5011 17.3241 21.5717 17.5903 21.5616C17.8564 21.5516 18.1133 21.4614 18.3273 21.3029C18.544 21.1466 18.7095 20.9296 18.8028 20.6793C18.8961 20.4289 18.913 20.1566 18.8514 19.8966L17.5389 14.3419L21.8439 10.6238C22.0465 10.4491 22.1928 10.2182 22.2642 9.96042C22.3356 9.70261 22.329 9.42941 22.2452 9.17535ZM21.107 9.77254L16.5423 13.71C16.4645 13.7772 16.4065 13.8645 16.3748 13.9624C16.343 14.0602 16.3387 14.1649 16.3623 14.265L17.7573 20.1516C17.7696 20.196 17.7675 20.2432 17.7516 20.2864C17.7356 20.3296 17.7065 20.3667 17.6683 20.3925C17.6337 20.4193 17.5916 20.4346 17.5479 20.4362C17.5042 20.4379 17.4611 20.4259 17.4245 20.4019L12.2945 17.25C12.206 17.1957 12.1041 17.1669 12.0002 17.1669C11.8962 17.1669 11.7943 17.1957 11.7058 17.25L6.57578 20.401C6.53923 20.425 6.4961 20.437 6.4524 20.4353C6.4087 20.4336 6.36662 20.4184 6.33203 20.3916C6.29301 20.3664 6.26293 20.3296 6.2461 20.2863C6.22926 20.2431 6.22652 20.1956 6.23828 20.1507L7.63328 14.2641C7.65689 14.164 7.6526 14.0593 7.62086 13.9614C7.58913 13.8636 7.53116 13.7763 7.45328 13.7091L2.88859 9.7716C2.85278 9.74244 2.82694 9.70285 2.81468 9.65832C2.80241 9.61379 2.80432 9.56655 2.82015 9.52317C2.83238 9.48039 2.85765 9.4425 2.89244 9.41478C2.92722 9.38705 2.96979 9.37086 3.01421 9.36848L9.00671 8.88473C9.10997 8.87634 9.20891 8.8396 9.29262 8.77856C9.37632 8.71752 9.44154 8.63455 9.48109 8.53879L11.7902 2.95129C11.8062 2.90993 11.8345 2.87439 11.8711 2.84934C11.9077 2.82429 11.9511 2.81088 11.9955 2.81088C12.0398 2.81088 12.0832 2.82429 12.1198 2.84934C12.1565 2.87439 12.1847 2.90993 12.2008 2.95129L14.5098 8.53879C14.5494 8.63455 14.6146 8.71752 14.6983 8.77856C14.782 8.8396 14.881 8.87634 14.9842 8.88473L20.9767 9.36848C21.0211 9.37086 21.0637 9.38705 21.0985 9.41478C21.1333 9.4425 21.1585 9.48039 21.1708 9.52317C21.1873 9.56621 21.1901 9.61334 21.1787 9.65803C21.1673 9.70271 21.1422 9.74273 21.107 9.77254Z" fill="#FFA800"/>
</svg>
